<?xml version="1.0" encoding="utf-8"?>
<!-- Generator: Adobe Illustrator 26.5.0, SVG Export Plug-In . SVG Version: 6.00 Build 0)  -->
<svg version="1.1" id="Layer_1" xmlns="http://www.w3.org/2000/svg" xmlns:xlink="http://www.w3.org/1999/xlink" x="0px" y="0px"
	 viewBox="0 0 1920 1080" style="enable-background:new 0 0 1920 1080;" xml:space="preserve">
<style type="text/css">
	.st0{clip-path:url(#SVGID_00000003084209245352296610000006814891275124304831_);fill:#FFFFFF;}
	.st1{fill:#FFFFFF;}
	.st2{fill:none;stroke:#262626;stroke-width:0.5004;stroke-linecap:square;stroke-linejoin:round;stroke-miterlimit:10;}
	.st3{fill:#4D4D4F;}
	.st4{font-family:'ArialMT';}
	.st5{font-size:15.0219px;}
	.st6{fill:none;stroke:#000000;stroke-width:0.5004;stroke-linecap:square;stroke-linejoin:round;stroke-miterlimit:10;}
	.st7{fill:#231F20;}
	.st8{font-size:16.5388px;}
	.st9{fill:none;stroke:#000000;stroke-width:0.5004;stroke-linejoin:round;stroke-miterlimit:10;}
	.st10{clip-path:url(#SVGID_00000040547527957488565880000006652425748506185378_);fill:#FFFFFF;}
	.st11{fill:#BFBFBF;}
	.st12{fill:none;stroke:#000000;stroke-width:0.5004;stroke-miterlimit:10;}
	.st13{fill:#E65959;}
	.st14{fill:#0080FE;}
	
		.st15{clip-path:url(#SVGID_00000028321415315505127150000015529026689794032772_);fill:none;stroke:#000000;stroke-width:2.001;stroke-linejoin:round;stroke-miterlimit:10;}
	.st16{font-size:15.0361px;}
	.st17{fill:none;stroke:#000000;stroke-width:2.001;stroke-linejoin:round;stroke-miterlimit:10;}
	.st18{fill:none;stroke:#262626;stroke-width:0.5004;stroke-miterlimit:10;}
	.st19{fill:none;stroke:#262626;stroke-width:0.5004;stroke-linejoin:round;stroke-miterlimit:10;}
	.st20{fill:#262626;}
	.st21{font-size:12.0167px;}
	.st22{clip-path:url(#SVGID_00000108278582228535194770000001413361444501902475_);fill:#FFFFFF;}
	
		.st23{clip-path:url(#SVGID_00000176022420644555731270000008563487753153060502_);fill:none;stroke:#000000;stroke-width:2.001;stroke-linejoin:round;stroke-miterlimit:10;}
	.st24{font-size:16.5231px;}
	.st25{fill:#808080;}
	
		.st26{clip-path:url(#SVGID_00000093897228174343171710000008313626584728437124_);fill:none;stroke:#000000;stroke-width:2.001;stroke-linejoin:round;stroke-miterlimit:10;}
	.st27{fill:none;}
	.st28{font-family:'Arial-BoldMT';}
	.st29{font-size:22.5349px;}
</style>
<g>
	<g>
		<defs>
			<polygon id="SVGID_1_" points="671.9,11 1353.7,11 1372.4,1075.6 671.9,1075.6 			"/>
		</defs>
		<clipPath id="SVGID_00000171695631872271700140000015642246037427797633_">
			<use xlink:href="#SVGID_1_"  style="overflow:visible;"/>
		</clipPath>
		<polygon style="clip-path:url(#SVGID_00000171695631872271700140000015642246037427797633_);fill:#FFFFFF;" points="671.9,11 
			1353.7,11 1372.4,1075.6 671.9,1075.6 		"/>
	</g>
	<polygon class="st1" points="671.9,11 1353.7,11 1372.4,1075.6 671.9,1075.6 	"/>
	<rect x="763.5" y="91.3" class="st1" width="314.3" height="229.5"/>
	<path class="st2" d="M763.5,320.8h314.3 M794.1,320.8v3.1 M860.7,320.8v3.1 M927.3,320.8v3.1 M993.9,320.8v3.1 M1060.5,320.8v3.1"
		/>
	<text transform="matrix(1.0009 0 0 1 777.2188 342.4351)" class="st3 st4 st5">2000</text>
	<text transform="matrix(1.0009 0 0 1 843.8252 342.4351)" class="st3 st4 st5">2005</text>
	<text transform="matrix(1.0009 0 0 1 910.417 342.4351)" class="st3 st4 st5">2010</text>
	<text transform="matrix(1.0009 0 0 1 977.0098 342.4351)" class="st3 st4 st5">2015</text>
	<text transform="matrix(1.0009 0 0 1 1043.6162 342.4351)" class="st3 st4 st5">2020</text>
	<path class="st6" d="M763.5,320.8V91.3 M763.5,320.8h-3.1 M763.5,257.1h-3.1 M763.5,193.3h-3.1 M763.5,129.5h-3.1"/>
	<text transform="matrix(1.0009 0 0 1 748.8877 326.4438)" class="st7 st4 st5">0</text>
	<text transform="matrix(1.0009 0 0 1 723.5215 262.6831)" class="st7 st4 st5">2000</text>
	<text transform="matrix(1.0009 0 0 1 723.5215 198.9214)" class="st7 st4 st5">4000</text>
	<text transform="matrix(1.0009 0 0 1 723.5215 135.1753)" class="st7 st4 st5">6000</text>
	<text transform="matrix(0 -0.9991 1 0 701.6475 272.938)" class="st7 st4 st8">Area burned (kha)</text>
	<path class="st6" d="M1077.8,320.8V91.3 M1077.8,300.4h3.1 M1077.8,259.6h3.1 M1077.8,218.8h3.1 M1077.8,178h3.1 M1077.8,137.2h3.1
		 M1077.8,96.4h3.1"/>
	<text transform="matrix(1.0009 0 0 1 1083.9922 306.0513)" class="st7 st4 st5">1.</text>
	<text transform="matrix(1.0009 0 0 1 1095.2598 306.0513)" class="st7 st4 st5">6</text>
	<text transform="matrix(1.0009 0 0 1 1083.9922 265.2358)" class="st7 st4 st5">1.</text>
	<text transform="matrix(1.0009 0 0 1 1095.2598 265.2358)" class="st7 st4 st5">8</text>
	<text transform="matrix(1.0009 0 0 1 1083.9922 224.4351)" class="st7 st4 st5">2</text>
	<text transform="matrix(1.0009 0 0 1 1083.9922 183.6343)" class="st7 st4 st5">2.</text>
	<text transform="matrix(1.0009 0 0 1 1095.2598 183.6343)" class="st7 st4 st5">2</text>
	<text transform="matrix(1.0009 0 0 1 1083.9922 142.8052)" class="st7 st4 st5">2.</text>
	<text transform="matrix(1.0009 0 0 1 1095.2598 142.8052)" class="st7 st4 st5">4</text>
	<text transform="matrix(1.0009 0 0 1 1083.9922 102.02)" class="st7 st4 st5">2.</text>
	<text transform="matrix(1.0009 0 0 1 1095.2598 102.02)" class="st7 st4 st5">6</text>
	<line class="st9" x1="763.5" y1="320.8" x2="1077.8" y2="320.8"/>
	<g>
		<defs>
			<polygon id="SVGID_00000003096068270117719340000011333205606192136072_" points="763.5,91.3 1077.8,91.3 1077.8,320.8 
				763.5,320.8 763.5,91.3 			"/>
		</defs>
		<clipPath id="SVGID_00000102539379421564275610000002597820224996868530_">
			<use xlink:href="#SVGID_00000003096068270117719340000011333205606192136072_"  style="overflow:visible;"/>
		</clipPath>
		<path style="clip-path:url(#SVGID_00000102539379421564275610000002597820224996868530_);fill:#FFFFFF;" d="M1062.4,320.8
			c0,1-0.8,1.9-1.9,1.9s-1.9-0.8-1.9-1.9c0-1,0.8-1.9,1.9-1.9S1062.4,319.8,1062.4,320.8L1062.4,320.8z"/>
	</g>
	<path class="st11" d="M787.5,320.8v-1h-13.3v1H787.5z M800.8,320.8v-0.5h-13.3v0.5H800.8z M814.1,320.8v-1.2h-13.3v1.2H814.1z
		 M827.4,320.8v-1.7h-13.3v1.7H827.4z M840.8,320.8v-2.7h-13.3v2.7H840.8z M854.1,320.8V320h-13.3v0.8H854.1z M867.4,320.8v-1.8
		h-13.3v1.8H867.4z M880.7,320.8v-2h-13.3v2H880.7z M894,320.8v-4.6h-13.3v4.6H894z M907.4,320.8v-2.9H894v2.9H907.4z M920.7,320.8
		v-0.9h-13.3v0.9H920.7z M934,320.8V320h-13.3v0.8H934z M947.3,320.8v-1.9H934v1.9H947.3z M960.6,320.8v-3h-13.3v3H960.6z
		 M974,320.8v-2.4h-13.3v2.4H974z M987.3,320.8v-2.1H974v2.1H987.3z M1000.6,320.8v-1.4h-13.3v1.4H1000.6z M1013.9,320.8v-7.5h-13.3
		v7.5H1013.9z M1027.2,320.8v-8.3h-13.3v8.3H1027.2z M1040.5,320.8v-6.5h-13.3v6.5H1040.5z M1053.9,320.8v-4.6h-13.3v4.6H1053.9z
		 M1067.2,320.8v-26.6h-13.3v26.6H1067.2z"/>
	<path class="st12" d="M774.2,320.8v-1h13.3v1H774.2z M787.5,320.8v-0.5h13.3v0.5H787.5z M800.8,320.8v-1.2h13.3v1.2H800.8z
		 M814.1,320.8v-1.7h13.3v1.7H814.1z M827.4,320.8v-2.7h13.3v2.7H827.4z M840.8,320.8V320h13.3v0.8H840.8z M854.1,320.8v-1.8h13.3
		v1.8H854.1z M867.4,320.8v-2h13.3v2H867.4z M880.7,320.8v-4.6H894v4.6H880.7z M894,320.8v-2.9h13.3v2.9H894z M907.4,320.8v-0.9
		h13.3v0.9H907.4z M920.7,320.8V320H934v0.8H920.7z M934,320.8v-1.9h13.3v1.9H934z M947.3,320.8v-3h13.3v3H947.3z M960.6,320.8v-2.4
		H974v2.4H960.6z M974,320.8v-2.1h13.3v2.1H974z M987.3,320.8v-1.4h13.3v1.4H987.3z M1000.6,320.8v-7.5h13.3v7.5H1000.6z
		 M1013.9,320.8v-8.3h13.3v8.3H1013.9z M1027.2,320.8v-6.5h13.3v6.5H1027.2z M1040.5,320.8v-4.6h13.3v4.6H1040.5z M1053.9,320.8
		v-26.6h13.3v26.6H1053.9z"/>
	<path class="st13" d="M787.5,319.8v-10.2h-13.3v10.2H787.5z M800.8,320.3v-13.7h-13.3v13.7H800.8z M814.1,319.6v-4.1h-13.3v4.1
		H814.1z M827.4,319.1v-18.9h-13.3v18.9H827.4z M840.8,318.1v-14.2h-13.3v14.2H840.8z M854.1,320v-4.4h-13.3v4.4H854.1z
		 M867.4,319.1v-9.6h-13.3v9.6H867.4z M880.7,318.8v-13.2h-13.3v13.2H880.7z M894,316.2V298h-13.3v18.2H894z M907.4,317.9v-8.3H894
		v8.3H907.4z M920.7,319.9v-7.3h-13.3v7.3H920.7z M934,320v-5.6h-13.3v5.6H934z M947.3,318.9v-25H934v25H947.3z M960.6,317.8v-16
		h-13.3v16H960.6z M974,318.5v-8.9h-13.3v8.9H974z M987.3,318.7v-5.3H974v5.3H987.3z M1000.6,319.4v-12.2h-13.3v12.2H1000.6z
		 M1013.9,313.3v-12.6h-13.3v12.6H1013.9z M1027.2,312.6v-22.2h-13.3v22.2H1027.2z M1040.5,314.3v-41.7h-13.3v41.7H1040.5z
		 M1053.9,316.2v-4.8h-13.3v4.8H1053.9z M1067.2,294.2v-30.4h-13.3v30.4H1067.2z"/>
	<path class="st12" d="M774.2,319.8v-10.2h13.3v10.2H774.2z M787.5,320.3v-13.7h13.3v13.7H787.5z M800.8,319.6v-4.1h13.3v4.1H800.8z
		 M814.1,319.1v-18.9h13.3v18.9H814.1z M827.4,318.1v-14.2h13.3v14.2H827.4z M840.8,320v-4.4h13.3v4.4H840.8z M854.1,319.1v-9.6
		h13.3v9.6H854.1z M867.4,318.8v-13.2h13.3v13.2H867.4z M880.7,316.2V298H894v18.2H880.7z M894,317.9v-8.3h13.3v8.3H894z
		 M907.4,319.9v-7.3h13.3v7.3H907.4z M920.7,320v-5.6H934v5.6H920.7z M934,318.9v-25h13.3v25H934z M947.3,317.8v-16h13.3v16H947.3z
		 M960.6,318.5v-8.9H974v8.9H960.6z M974,318.7v-5.3h13.3v5.3H974z M987.3,319.4v-12.2h13.3v12.2H987.3z M1000.6,313.3v-12.6h13.3
		v12.6H1000.6z M1013.9,312.6v-22.2h13.3v22.2H1013.9z M1027.2,314.3v-41.7h13.3v41.7H1027.2z M1040.5,316.2v-4.8h13.3v4.8H1040.5z
		 M1053.9,294.2v-30.4h13.3v30.4H1053.9z"/>
	<path class="st14" d="M787.5,309.6v-31.6h-13.3v31.6H787.5z M800.8,306.6v-45.4h-13.3v45.4H800.8z M814.1,315.6v-21.9h-13.3v21.9
		H814.1z M827.4,300.2v-24.9h-13.3v24.9H827.4z M840.8,303.9v-21.5h-13.3v21.5H840.8z M854.1,315.6v-6.3h-13.3v6.3H854.1z
		 M867.4,309.5v-27.4h-13.3v27.4H867.4z M880.7,305.6v-58.4h-13.3v58.4H880.7z M894,298v-58.1h-13.3V298H894z M907.4,309.6v-19.9
		H894v19.9H907.4z M920.7,312.6v-10.7h-13.3v10.7H920.7z M934,314.5v-10.2h-13.3v10.2H934z M947.3,294v-22.6H934V294H947.3z
		 M960.6,301.8v-71.7h-13.3v71.7H960.6z M974,309.5v-22h-13.3v22H974z M987.3,313.4v-26.9H974v26.9H987.3z M1000.6,307.2v-40.9
		h-13.3v40.9H1000.6z M1013.9,300.8v-14.1h-13.3v14.1H1013.9z M1027.2,290.3v-57.2h-13.3v57.2H1027.2z M1040.5,272.7v-32.4h-13.3
		v32.4H1040.5z M1053.9,311.4v-10h-13.3v10H1053.9z M1067.2,263.8V198h-13.3v65.8H1067.2z"/>
	<path class="st12" d="M774.2,309.6v-31.6h13.3v31.6H774.2z M787.5,306.6v-45.4h13.3v45.4H787.5z M800.8,315.6v-21.9h13.3v21.9
		H800.8z M814.1,300.2v-24.9h13.3v24.9H814.1z M827.4,303.9v-21.5h13.3v21.5H827.4z M840.8,315.6v-6.3h13.3v6.3H840.8z M854.1,309.5
		v-27.4h13.3v27.4H854.1z M867.4,305.6v-58.4h13.3v58.4H867.4z M880.7,298v-58.1H894V298H880.7z M894,309.6v-19.9h13.3v19.9H894z
		 M907.4,312.6v-10.7h13.3v10.7H907.4z M920.7,314.5v-10.2H934v10.2H920.7z M934,294v-22.6h13.3V294H934z M947.3,301.8v-71.7h13.3
		v71.7H947.3z M960.6,309.5v-22H974v22H960.6z M974,313.4v-26.9h13.3v26.9H974z M987.3,307.2v-40.9h13.3v40.9H987.3z M1000.6,300.8
		v-14.1h13.3v14.1H1000.6z M1013.9,290.3v-57.2h13.3v57.2H1013.9z M1027.2,272.7v-32.4h13.3v32.4H1027.2z M1040.5,311.4v-10h13.3v10
		H1040.5z M1053.9,263.8V198h13.3v65.8H1053.9z"/>
	<g>
		<defs>
			<polygon id="SVGID_00000036950553852091335350000009909796206070201998_" points="763.5,91.3 1077.8,91.3 1077.8,320.8 
				763.5,320.8 763.5,91.3 			"/>
		</defs>
		<clipPath id="SVGID_00000054975934838053787690000005610495937725690256_">
			<use xlink:href="#SVGID_00000036950553852091335350000009909796206070201998_"  style="overflow:visible;"/>
		</clipPath>
		
			<polyline style="clip-path:url(#SVGID_00000054975934838053787690000005610495937725690256_);fill:none;stroke:#000000;stroke-width:2.001;stroke-linejoin:round;stroke-miterlimit:10;" points="
			780.8,303.6 794.1,244.9 807.5,250.9 820.8,226.9 834.1,223.1 847.4,269.6 860.7,259.9 874.1,234.1 887.4,225.3 900.7,247.6 
			914,272.4 927.3,272 940.7,253.3 954,209.7 967.3,238.8 980.6,272.3 993.9,252.6 1007.2,238.6 1020.6,236.7 1033.9,236.9 
			1047.2,259.8 1060.5,219.4 		"/>
	</g>
	<text transform="matrix(0 0.9991 -1 0 1121.4912 170.8413)" class="st7 st4 st16">VPD (kpa)</text>
	<rect x="777.6" y="91.3" class="st1" width="259.4" height="107"/>
	<text transform="matrix(1.0009 0 0 1 843.8398 109.5747)" class="st7 st4 st5">Tot. area burned: no trend</text>
	<path class="st1" d="M813.3,103.9c0,1-0.8,1.9-1.9,1.9s-1.9-0.8-1.9-1.9c0-1,0.8-1.9,1.9-1.9S813.3,102.9,813.3,103.9L813.3,103.9z
		"/>
	<text transform="matrix(1.0009 0 0 1 843.8398 130.7007)" class="st7 st4 st5">U (8% of tot.): trend </text>
	<path d="M982.7,133.4v-11.4c-0.2,0.4-0.5,0.7-0.8,1c-0.3,0.3-0.7,0.5-1,0.7c-0.4,0.2-0.8,0.4-1.2,0.4c0,0,0,0,0,0
		c-0.1,0-0.2,0-0.2-0.1v-0.3c0-0.1,0-0.1,0.1-0.2c0.6-0.1,1.1-0.4,1.6-0.7c0.5-0.3,0.9-0.8,1.2-1.2c0.3-0.5,0.5-1,0.6-1.6
		c0,0,0-0.1,0.1-0.1c0,0,0.1,0,0.1,0s0.1,0,0.1,0c0,0,0.1,0.1,0.1,0.1c0.1,0.9,0.5,1.6,1.1,2.3c0.6,0.7,1.4,1.1,2.2,1.3
		c0,0,0.1,0,0.1,0.1c0,0,0,0.1,0,0.1v0.3c0,0,0,0.1-0.1,0.1c0,0-0.1,0-0.1,0c0,0,0,0,0,0c-0.4-0.1-0.8-0.2-1.2-0.4
		c-0.4-0.2-0.7-0.5-1-0.7c-0.3-0.3-0.6-0.6-0.8-1v11.4c0,0.1,0,0.1-0.1,0.2c-0.1,0.1-0.1,0.1-0.2,0.1s-0.1,0-0.2-0.1
		C982.8,133.6,982.7,133.5,982.7,133.4L982.7,133.4z"/>
	<rect x="783.2" y="117" class="st11" width="56.4" height="14.8"/>
	<rect x="783.2" y="117" class="st12" width="56.4" height="14.8"/>
	<text transform="matrix(1.0009 0 0 1 843.8398 150.4194)" class="st7 st4 st5">H (28% of tot.): no trend</text>
	<rect x="783.2" y="137.4" class="st13" width="56.4" height="14.8"/>
	<rect x="783.2" y="137.4" class="st12" width="56.4" height="14.8"/>
	<text transform="matrix(1.0009 0 0 1 843.8398 170.8276)" class="st7 st4 st5">L (64% of tot.): no trend</text>
	<rect x="783.2" y="157.8" class="st14" width="56.4" height="14.8"/>
	<rect x="783.2" y="157.8" class="st12" width="56.4" height="14.8"/>
	<text transform="matrix(1.0009 0 0 1 843.8398 191.2642)" class="st7 st4 st5">JJA VPD: no trend | r = 0.6</text>
	<text transform="matrix(1.0009 0 0 1 1023.1797 191.2642)" class="st7 st4 st5">3</text>
	<line class="st17" x1="783.2" y1="185.6" x2="839.6" y2="185.6"/>
	<rect x="777.6" y="91.3" class="st18" width="259.4" height="107"/>
	<rect x="1190.2" y="91.3" class="st1" width="143.8" height="229.5"/>
	<line class="st19" x1="1190.2" y1="320.8" x2="1333.9" y2="320.8"/>
	<path class="st11" d="M1254.9,320.8v-7.3h-57.5v7.3H1254.9z M1326.7,320.8v-23.4h-57.5v23.4H1326.7z"/>
	<path class="st12" d="M1197.3,320.8v-7.3h57.5v7.3H1197.3z M1269.2,320.8v-23.4h57.5v23.4H1269.2z"/>
	<path class="st13" d="M1254.9,313.6v-43.9h-57.5v43.9H1254.9z M1326.7,297.4v-66.5h-57.5v66.5H1326.7z"/>
	<path class="st12" d="M1197.3,313.6v-43.9h57.5v43.9H1197.3z M1269.2,297.4v-66.5h57.5v66.5H1269.2z"/>
	<path class="st14" d="M1254.9,269.6V152.2h-57.5v117.4H1254.9z M1326.7,230.9V96.4h-57.5v134.5H1326.7z"/>
	<path class="st12" d="M1197.3,269.6V152.2h57.5v117.4H1197.3z M1269.2,230.9V96.4h57.5v134.5H1269.2z"/>
	<text transform="matrix(1.0009 0 0 1 1206.3633 336.3169)" class="st7 st4 st5">1999-</text>
	<text transform="matrix(1.0009 0 0 1 1209.1797 356.021)" class="st7 st4 st5">2009</text>
	<text transform="matrix(1.0009 0 0 1 1278.252 336.3169)" class="st7 st4 st5">2010-</text>
	<text transform="matrix(1.0009 0 0 1 1281.0693 356.021)" class="st7 st4 st5">2020</text>
	<text transform="matrix(1.0009 0 0 1 1276.1396 92.689)" class="st7 st4 st5">33%</text>
	<text transform="matrix(1.0009 0 0 1 1303.6924 92.689)" class="st7 st4 st5"> </text>
	<path d="M1314.9,95.4V84.1c-0.2,0.4-0.5,0.7-0.8,1c-0.3,0.3-0.7,0.5-1,0.7c-0.4,0.2-0.8,0.4-1.2,0.4c0,0,0,0,0,0
		c-0.1,0-0.2,0-0.2-0.1v-0.3c0-0.1,0-0.1,0.1-0.2c0.6-0.1,1.1-0.4,1.6-0.7c0.5-0.3,0.9-0.8,1.2-1.2c0.3-0.5,0.5-1,0.6-1.6
		c0,0,0-0.1,0.1-0.1c0,0,0.1,0,0.1,0c0,0,0.1,0,0.1,0c0,0,0.1,0.1,0.1,0.1c0.1,0.9,0.5,1.6,1.1,2.3c0.6,0.7,1.4,1.1,2.2,1.3
		c0,0,0.1,0,0.1,0.1c0,0,0,0.1,0,0.1v0.3c0,0,0,0.1-0.1,0.1c0,0-0.1,0-0.1,0c0,0,0,0,0,0c-0.4-0.1-0.8-0.2-1.2-0.4
		c-0.4-0.2-0.7-0.5-1-0.7c-0.3-0.3-0.6-0.6-0.8-1v11.4c0,0.1,0,0.1-0.1,0.2c-0.1,0.1-0.1,0.1-0.2,0.1c-0.1,0-0.1,0-0.2-0.1
		C1315,95.5,1314.9,95.5,1314.9,95.4L1314.9,95.4z"/>
	<text transform="matrix(1.0009 0 0 1 1271.8994 315.1909)" class="st7 st4 st5">222%</text>
	<text transform="matrix(1.0009 0 0 1 1306.9785 315.1909)" class="st7 st4 st5"> </text>
	<path d="M1319.2,317.9v-11.4c-0.2,0.4-0.5,0.7-0.8,1c-0.3,0.3-0.7,0.5-1,0.7c-0.4,0.2-0.8,0.4-1.2,0.4c0,0,0,0,0,0
		c-0.1,0-0.2,0-0.2-0.1v-0.3c0-0.1,0-0.1,0.1-0.2c0.6-0.1,1.1-0.4,1.6-0.7c0.5-0.3,0.9-0.8,1.2-1.2c0.3-0.5,0.5-1,0.6-1.6
		c0,0,0-0.1,0.1-0.1c0,0,0.1,0,0.1,0s0.1,0,0.1,0c0,0,0.1,0.1,0.1,0.1c0.1,0.9,0.5,1.6,1.1,2.3c0.6,0.7,1.4,1.1,2.2,1.3
		c0,0,0.1,0,0.1,0.1c0,0,0,0.1,0,0.1v0.3c0,0,0,0.1-0.1,0.1c0,0-0.1,0-0.1,0c0,0,0,0,0,0c-0.4-0.1-0.8-0.2-1.2-0.4
		c-0.4-0.2-0.7-0.5-1-0.7c-0.3-0.3-0.6-0.6-0.8-1v11.4c0,0.1,0,0.1-0.1,0.2c-0.1,0.1-0.1,0.1-0.2,0.1c-0.1,0-0.1,0-0.2-0.1
		C1319.2,318,1319.2,318,1319.2,317.9L1319.2,317.9z"/>
	<text transform="matrix(1.0009 0 0 1 1276.1396 270.106)" class="st7 st4 st5">51%</text>
	<text transform="matrix(1.0009 0 0 1 1303.6924 270.106)" class="st7 st4 st5"> </text>
	<path d="M1314.9,272.8v-11.4c-0.2,0.4-0.5,0.7-0.8,1c-0.3,0.3-0.7,0.5-1,0.7c-0.4,0.2-0.8,0.4-1.2,0.4c0,0,0,0,0,0
		c-0.1,0-0.2,0-0.2-0.1v-0.3c0-0.1,0-0.1,0.1-0.2c0.6-0.1,1.1-0.4,1.6-0.7c0.5-0.3,0.9-0.8,1.2-1.2c0.3-0.5,0.5-1,0.6-1.6
		c0,0,0-0.1,0.1-0.1c0,0,0.1,0,0.1,0c0,0,0.1,0,0.1,0c0,0,0.1,0.1,0.1,0.1c0.1,0.9,0.5,1.6,1.1,2.3c0.6,0.7,1.4,1.1,2.2,1.3
		c0,0,0.1,0,0.1,0.1c0,0,0,0.1,0,0.1v0.3c0,0,0,0.1-0.1,0.1c0,0-0.1,0-0.1,0c0,0,0,0,0,0c-0.4-0.1-0.8-0.2-1.2-0.4
		c-0.4-0.2-0.7-0.5-1-0.7c-0.3-0.3-0.6-0.6-0.8-1v11.4c0,0.1,0,0.1-0.1,0.2c-0.1,0.1-0.1,0.1-0.2,0.1c-0.1,0-0.1,0-0.2-0.1
		C1315,273,1314.9,272.9,1314.9,272.8L1314.9,272.8z"/>
	<text transform="matrix(1.0009 0 0 1 1276.1396 168.729)" class="st7 st4 st5">15%</text>
	<text transform="matrix(1.0009 0 0 1 1303.6924 168.729)" class="st7 st4 st5"> </text>
	<path d="M1314.9,171.5v-11.4c-0.2,0.4-0.5,0.7-0.8,1c-0.3,0.3-0.7,0.5-1,0.7c-0.4,0.2-0.8,0.4-1.2,0.4c0,0,0,0,0,0
		c-0.1,0-0.2,0-0.2-0.1v-0.3c0-0.1,0-0.1,0.1-0.2c0.6-0.1,1.1-0.4,1.6-0.7c0.5-0.3,0.9-0.8,1.2-1.2c0.3-0.5,0.5-1,0.6-1.6
		c0,0,0-0.1,0.1-0.1c0,0,0.1,0,0.1,0c0,0,0.1,0,0.1,0c0,0,0.1,0.1,0.1,0.1c0.1,0.9,0.5,1.6,1.1,2.3c0.6,0.7,1.4,1.1,2.2,1.3
		c0,0,0.1,0,0.1,0.1c0,0,0,0.1,0,0.1v0.3c0,0,0,0.1-0.1,0.1c0,0-0.1,0-0.1,0c0,0,0,0,0,0c-0.4-0.1-0.8-0.2-1.2-0.4
		c-0.4-0.2-0.7-0.5-1-0.7c-0.3-0.3-0.6-0.6-0.8-1v11.4c0,0.1,0,0.1-0.1,0.2c-0.1,0.1-0.1,0.1-0.2,0.1c-0.1,0-0.1,0-0.2-0.1
		C1315,171.6,1314.9,171.5,1314.9,171.5L1314.9,171.5z"/>
	<path class="st2" d="M1190.2,320.8h143.8 M1226.1,320.8v2.3 M1298,320.8v2.3"/>
	<path class="st2" d="M1190.2,320.8V91.3 M1190.2,320.8h-2.3 M1190.2,263.4h-2.3 M1190.2,206h-2.3 M1190.2,148.7h-2.3 M1190.2,91.3
		h-2.3"/>
	<text transform="matrix(1.0009 0 0 1 1176.3906 326.4438)" class="st3 st4 st5">0</text>
	<text transform="matrix(1.0009 0 0 1 1163.7002 269.0649)" class="st3 st4 st5">0.</text>
	<text transform="matrix(1.0009 0 0 1 1174.9678 269.0649)" class="st3 st4 st5">5</text>
	<text transform="matrix(1.0009 0 0 1 1176.3906 211.686)" class="st3 st4 st5">1</text>
	<text transform="matrix(1.0009 0 0 1 1163.7002 154.2925)" class="st3 st4 st5">1.</text>
	<text transform="matrix(1.0009 0 0 1 1174.9678 154.2925)" class="st3 st4 st5">5</text>
	<text transform="matrix(1.0009 0 0 1 1176.3906 96.8989)" class="st3 st4 st5">2</text>
	<path class="st20" d="M1192.4,86.6c0-0.1,0-0.2,0.1-0.2l3.2-3.2l-3.2-3.2c-0.1-0.1-0.1-0.1-0.1-0.2c0-0.1,0-0.1,0.1-0.2
		c0.1-0.1,0.1-0.1,0.2-0.1c0.1,0,0.1,0,0.2,0.1l3.2,3.2l3.2-3.2c0.1-0.1,0.2-0.1,0.2-0.1c0.1,0,0.2,0,0.2,0.1
		c0.1,0.1,0.1,0.1,0.1,0.2c0,0.1,0,0.2-0.1,0.2l-3.2,3.2l3.2,3.2c0,0.1,0.1,0.1,0.1,0.2c0,0.1,0,0.2-0.1,0.2
		c-0.1,0.1-0.1,0.1-0.2,0.1c-0.1,0-0.1,0-0.2-0.1l-3.2-3.2l-3.2,3.2c-0.1,0.1-0.1,0.1-0.2,0.1c-0.1,0-0.2,0-0.2-0.1
		C1192.5,86.7,1192.4,86.7,1192.4,86.6L1192.4,86.6z"/>
	<text transform="matrix(1.0009 0 0 1 1202.8418 87.0542)" class="st3 st4 st5">10</text>
	<text transform="matrix(1.0009 0 0 1 1219.7432 80.0122)" class="st3 st4 st21">4</text>
	<rect x="763.5" y="375.7" class="st1" width="314.3" height="229.5"/>
	<path class="st2" d="M763.5,605.3h314.3 M794.1,605.3v3.1 M860.7,605.3v3.1 M927.3,605.3v3.1 M993.9,605.3v3.1 M1060.5,605.3v3.1"
		/>
	<text transform="matrix(1.0009 0 0 1 777.2188 626.9082)" class="st3 st4 st5">2000</text>
	<text transform="matrix(1.0009 0 0 1 843.8252 626.9082)" class="st3 st4 st5">2005</text>
	<text transform="matrix(1.0009 0 0 1 910.417 626.9082)" class="st3 st4 st5">2010</text>
	<text transform="matrix(1.0009 0 0 1 977.0098 626.9082)" class="st3 st4 st5">2015</text>
	<text transform="matrix(1.0009 0 0 1 1043.6162 626.9082)" class="st3 st4 st5">2020</text>
	<path class="st6" d="M763.5,605.3V375.7 M763.5,605.3h-3.1 M763.5,554.3h-3.1 M763.5,503.3h-3.1 M763.5,452.3h-3.1 M763.5,401.2
		h-3.1"/>
	<text transform="matrix(1.0009 0 0 1 748.8877 610.918)" class="st7 st4 st5">0</text>
	<text transform="matrix(1.0009 0 0 1 740.4375 559.9062)" class="st7 st4 st5">10</text>
	<text transform="matrix(1.0009 0 0 1 740.4375 508.895)" class="st7 st4 st5">20</text>
	<text transform="matrix(1.0009 0 0 1 740.4375 457.8833)" class="st7 st4 st5">30</text>
	<text transform="matrix(1.0009 0 0 1 740.4375 406.8853)" class="st7 st4 st5">40</text>
	<text transform="matrix(0 -0.9991 1 0 702.6885 567.2852)" class="st7 st4 st8">Structures destroyed</text>
	<text transform="matrix(0 -0.9991 1 0 723.8301 527.8198)" class="st7 st4 st8">(# x 1000)</text>
	<path class="st6" d="M1077.8,605.3V375.7 M1077.8,605.3h3.1 M1077.8,562.8h3.1 M1077.8,520.3h3.1 M1077.8,477.8h3.1 M1077.8,435.3
		h3.1 M1077.8,392.7h3.1"/>
	<text transform="matrix(1.0009 0 0 1 1083.9922 610.918)" class="st7 st4 st5">0</text>
	<text transform="matrix(1.0009 0 0 1 1083.9922 568.4141)" class="st7 st4 st5">500</text>
	<text transform="matrix(1.0009 0 0 1 1083.9922 525.9136)" class="st7 st4 st5">1000</text>
	<text transform="matrix(1.0009 0 0 1 1083.9922 483.397)" class="st7 st4 st5">1500</text>
	<text transform="matrix(1.0009 0 0 1 1083.9922 440.8774)" class="st7 st4 st5">2000</text>
	<text transform="matrix(1.0009 0 0 1 1083.9922 398.3765)" class="st7 st4 st5">2500</text>
	<line class="st9" x1="763.5" y1="605.3" x2="1077.8" y2="605.3"/>
	<g>
		<defs>
			<polygon id="SVGID_00000101089311190336619730000000216903133213400751_" points="763.5,375.7 1077.8,375.7 1077.8,605.3 
				763.5,605.3 763.5,375.7 			"/>
		</defs>
		<clipPath id="SVGID_00000173867650536216883730000010403895231785233059_">
			<use xlink:href="#SVGID_00000101089311190336619730000000216903133213400751_"  style="overflow:visible;"/>
		</clipPath>
		<path style="clip-path:url(#SVGID_00000173867650536216883730000010403895231785233059_);fill:#FFFFFF;" d="M1062.4,605.3
			c0,1-0.8,1.9-1.9,1.9s-1.9-0.8-1.9-1.9s0.8-1.9,1.9-1.9S1062.4,604.2,1062.4,605.3L1062.4,605.3z"/>
	</g>
	<path class="st11" d="M787.5,605.3v-0.2h-13.3v0.2H787.5z M800.8,605.3L800.8,605.3l-13.3,0v0H800.8z M814.1,605.3v-0.5h-13.3v0.5
		H814.1z M827.4,605.3v-0.5h-13.3v0.5H827.4z M840.8,605.3v-2.2h-13.3v2.2H840.8z M854.1,605.3v-0.5h-13.3v0.5H854.1z M867.4,605.3
		V605h-13.3v0.3H867.4z M880.7,605.3V605h-13.3v0.3H880.7z M894,605.3v-0.5h-13.3v0.5H894z M907.4,605.3v-3.1H894v3.1H907.4z
		 M920.7,605.3v-0.2h-13.3v0.2H920.7z M934,605.3v-0.4h-13.3v0.4H934z M947.3,605.3V605H934v0.2H947.3z M960.6,605.3v-0.9h-13.3v0.9
		H960.6z M974,605.3v-1.8h-13.3v1.8H974z M987.3,605.3v-1.1H974v1.1H987.3z M1000.6,605.3v-0.6h-13.3v0.6H1000.6z M1013.9,605.3
		v-1.5h-13.3v1.5H1013.9z M1027.2,605.3v-2.1h-13.3v2.1H1027.2z M1040.5,605.3v-1.2h-13.3v1.2H1040.5z M1053.9,605.3v-1.1h-13.3v1.1
		H1053.9z M1067.2,605.3v-6.6h-13.3v6.6H1067.2z"/>
	<path class="st12" d="M774.2,605.3v-0.2h13.3v0.2H774.2z M787.5,605.3L787.5,605.3l13.3,0v0H787.5z M800.8,605.3v-0.5h13.3v0.5
		H800.8z M814.1,605.3v-0.5h13.3v0.5H814.1z M827.4,605.3v-2.2h13.3v2.2H827.4z M840.8,605.3v-0.5h13.3v0.5H840.8z M854.1,605.3V605
		h13.3v0.3H854.1z M867.4,605.3V605h13.3v0.3H867.4z M880.7,605.3v-0.5H894v0.5H880.7z M894,605.3v-3.1h13.3v3.1H894z M907.4,605.3
		v-0.2h13.3v0.2H907.4z M920.7,605.3v-0.4H934v0.4H920.7z M934,605.3V605h13.3v0.2H934z M947.3,605.3v-0.9h13.3v0.9H947.3z
		 M960.6,605.3v-1.8H974v1.8H960.6z M974,605.3v-1.1h13.3v1.1H974z M987.3,605.3v-0.6h13.3v0.6H987.3z M1000.6,605.3v-1.5h13.3v1.5
		H1000.6z M1013.9,605.3v-2.1h13.3v2.1H1013.9z M1027.2,605.3v-1.2h13.3v1.2H1027.2z M1040.5,605.3v-1.1h13.3v1.1H1040.5z
		 M1053.9,605.3v-6.6h13.3v6.6H1053.9z"/>
	<path class="st13" d="M787.5,605.1v-3.9h-13.3v3.9H787.5z M800.8,605.2v-2.9h-13.3v2.9H800.8z M814.1,604.8v-0.7h-13.3v0.7H814.1z
		 M827.4,604.8v-9.3h-13.3v9.3H827.4z M840.8,603.1V577h-13.3v26.2H840.8z M854.1,604.8v-3.5h-13.3v3.5H854.1z M867.4,605v-1.9
		h-13.3v1.9H867.4z M880.7,605v-1.4h-13.3v1.4H880.7z M894,604.8v-18.5h-13.3v18.5H894z M907.4,602.2v-6H894v6H907.4z M920.7,605.1
		v-2.7h-13.3v2.7H920.7z M934,604.8v-1.4h-13.3v1.4H934z M947.3,605v-3.7H934v3.7H947.3z M960.6,604.4v-6.9h-13.3v6.9H960.6z
		 M974,603.5v-4.9h-13.3v4.9H974z M987.3,604.1v-2.9H974v2.9H987.3z M1000.6,604.7v-16.3h-13.3v16.3H1000.6z M1013.9,603.8v-7.2
		h-13.3v7.2H1013.9z M1027.2,603.1v-54.5h-13.3v54.5H1027.2z M1040.5,604.1V483.2h-13.3v120.9H1040.5z M1053.9,604.2v-2.1h-13.3v2.1
		H1053.9z M1067.2,598.7v-30.6h-13.3v30.6H1067.2z"/>
	<path class="st12" d="M774.2,605.1v-3.9h13.3v3.9H774.2z M787.5,605.2v-2.9h13.3v2.9H787.5z M800.8,604.8v-0.7h13.3v0.7H800.8z
		 M814.1,604.8v-9.3h13.3v9.3H814.1z M827.4,603.1V577h13.3v26.2H827.4z M840.8,604.8v-3.5h13.3v3.5H840.8z M854.1,605v-1.9h13.3
		v1.9H854.1z M867.4,605v-1.4h13.3v1.4H867.4z M880.7,604.8v-18.5H894v18.5H880.7z M894,602.2v-6h13.3v6H894z M907.4,605.1v-2.7
		h13.3v2.7H907.4z M920.7,604.8v-1.4H934v1.4H920.7z M934,605v-3.7h13.3v3.7H934z M947.3,604.4v-6.9h13.3v6.9H947.3z M960.6,603.5
		v-4.9H974v4.9H960.6z M974,604.1v-2.9h13.3v2.9H974z M987.3,604.7v-16.3h13.3v16.3H987.3z M1000.6,603.8v-7.2h13.3v7.2H1000.6z
		 M1013.9,603.1v-54.5h13.3v54.5H1013.9z M1027.2,604.1V483.2h13.3v120.9H1027.2z M1040.5,604.2v-2.1h13.3v2.1H1040.5z
		 M1053.9,598.7v-30.6h13.3v30.6H1053.9z"/>
	<path class="st14" d="M787.5,601.2v-0.2h-13.3v0.2H787.5z M800.8,602.4v-2.9h-13.3v2.9H800.8z M814.1,604.1L814.1,604.1l-13.3-0.1
		v0.1H814.1z M827.4,595.5v-0.8h-13.3v0.8H827.4z M840.8,577v-0.7h-13.3v0.7H840.8z M854.1,601.3v-0.1h-13.3v0.1H854.1z
		 M867.4,603.1v-0.4h-13.3v0.4H867.4z M880.7,603.6v-2.2h-13.3v2.2H880.7z M894,586.3v-2.7h-13.3v2.7H894z M907.4,596.2v-1.4H894
		v1.4H907.4z M920.7,602.3v-0.5h-13.3v0.5H920.7z M934,603.5v-0.2h-13.3v0.2H934z M947.3,601.3v-0.4H934v0.4H947.3z M960.6,597.5
		V590h-13.3v7.5H960.6z M974,598.6v-1.7h-13.3v1.7H974z M987.3,601.2v-3H974v3H987.3z M1000.6,588.4v-3h-13.3v3H1000.6z
		 M1013.9,596.7v-0.3h-13.3v0.3H1013.9z M1027.2,548.6v-1h-13.3v1H1027.2z M1040.5,483.2V482h-13.3v1.2H1040.5z M1053.9,602.1V602
		h-13.3v0.1H1053.9z M1067.2,568.1v-49.3h-13.3v49.3H1067.2z"/>
	<path class="st12" d="M774.2,601.2v-0.2h13.3v0.2H774.2z M787.5,602.4v-2.9h13.3v2.9H787.5z M800.8,604.1L800.8,604.1l13.3-0.1v0.1
		H800.8z M814.1,595.5v-0.8h13.3v0.8H814.1z M827.4,577v-0.7h13.3v0.7H827.4z M840.8,601.3v-0.1h13.3v0.1H840.8z M854.1,603.1v-0.4
		h13.3v0.4H854.1z M867.4,603.6v-2.2h13.3v2.2H867.4z M880.7,586.3v-2.7H894v2.7H880.7z M894,596.2v-1.4h13.3v1.4H894z M907.4,602.3
		v-0.5h13.3v0.5H907.4z M920.7,603.5v-0.2H934v0.2H920.7z M934,601.3v-0.4h13.3v0.4H934z M947.3,597.5V590h13.3v7.5H947.3z
		 M960.6,598.6v-1.7H974v1.7H960.6z M974,601.2v-3h13.3v3H974z M987.3,588.4v-3h13.3v3H987.3z M1000.6,596.7v-0.3h13.3v0.3H1000.6z
		 M1013.9,548.6v-1h13.3v1H1013.9z M1027.2,483.2V482h13.3v1.2H1027.2z M1040.5,602.1V602h13.3v0.1H1040.5z M1053.9,568.1v-49.3
		h13.3v49.3H1053.9z"/>
	<g>
		<defs>
			<polygon id="SVGID_00000108308349773678932950000006069916266543692219_" points="763.5,375.7 1077.8,375.7 1077.8,605.3 
				763.5,605.3 763.5,375.7 			"/>
		</defs>
		<clipPath id="SVGID_00000089564815007408037910000011070122150740616844_">
			<use xlink:href="#SVGID_00000108308349773678932950000006069916266543692219_"  style="overflow:visible;"/>
		</clipPath>
		
			<polyline style="clip-path:url(#SVGID_00000089564815007408037910000011070122150740616844_);fill:none;stroke:#000000;stroke-width:2.001;stroke-linejoin:round;stroke-miterlimit:10;" points="
			780.8,578.1 794.1,568.7 807.5,594.5 820.8,554.9 834.1,567.4 847.4,593.5 860.7,579.8 874.1,570.2 887.4,556.6 900.7,583.2 
			914,585.9 927.3,590.4 940.7,538.7 954,562.6 967.3,581.5 980.6,591.2 993.9,572.7 1007.2,571.8 1020.6,546 1033.9,494.1 
			1047.2,592.5 1060.5,524.1 		"/>
	</g>
	<text transform="matrix(0 0.9991 -1 0 1129.3398 429.9644)" class="st7 st4 st16">Area burned (kha)</text>
	<rect x="772" y="365.9" class="st1" width="269.2" height="107"/>
	<text transform="matrix(1.0009 0 0 1 838.207 384.1899)" class="st7 st4 st5">Tot. struc. loss: trend </text>
	<path d="M987,386.9v-11.4c-0.2,0.4-0.5,0.7-0.8,1c-0.3,0.3-0.7,0.5-1,0.7c-0.4,0.2-0.8,0.4-1.2,0.4c0,0,0,0,0,0
		c-0.1,0-0.2,0-0.2-0.1v-0.3c0-0.1,0-0.1,0.1-0.2c0.6-0.1,1.1-0.4,1.6-0.7c0.5-0.3,0.9-0.8,1.2-1.2c0.3-0.5,0.5-1,0.6-1.6
		c0,0,0-0.1,0.1-0.1c0,0,0.1,0,0.1,0s0.1,0,0.1,0c0,0,0.1,0.1,0.1,0.1c0.1,0.9,0.5,1.6,1.1,2.3c0.6,0.7,1.4,1.1,2.2,1.3
		c0,0,0.1,0,0.1,0.1c0,0,0,0.1,0,0.1v0.3c0,0,0,0.1-0.1,0.1c0,0-0.1,0-0.1,0c0,0,0,0,0,0c-0.4-0.1-0.8-0.2-1.2-0.4
		c-0.4-0.2-0.7-0.5-1-0.7c-0.3-0.3-0.6-0.6-0.8-1v11.4c0,0.1,0,0.1-0.1,0.2c-0.1,0.1-0.1,0.1-0.2,0.1s-0.1,0-0.2-0.1
		C987,387.1,987,387,987,386.9L987,386.9z"/>
	<path class="st1" d="M807.7,378.6c0,1-0.8,1.9-1.9,1.9c-1,0-1.9-0.8-1.9-1.9c0-1,0.8-1.9,1.9-1.9
		C806.8,376.7,807.7,377.5,807.7,378.6L807.7,378.6z"/>
	<text transform="matrix(1.0009 0 0 1 838.207 405.3169)" class="st7 st4 st5">From U (6% of tot.): trend </text>
	<path d="M1016.6,408v-11.4c-0.2,0.4-0.5,0.7-0.8,1c-0.3,0.3-0.7,0.5-1,0.7c-0.4,0.2-0.8,0.4-1.2,0.4c0,0,0,0,0,0
		c-0.1,0-0.2,0-0.2-0.1v-0.3c0-0.1,0-0.1,0.1-0.2c0.6-0.1,1.1-0.4,1.6-0.7c0.5-0.3,0.9-0.8,1.2-1.2c0.3-0.5,0.5-1,0.6-1.6
		c0,0,0-0.1,0.1-0.1c0,0,0.1,0,0.1,0s0.1,0,0.1,0c0,0,0.1,0.1,0.1,0.1c0.1,0.9,0.5,1.6,1.1,2.3c0.6,0.7,1.4,1.1,2.2,1.3
		c0,0,0.1,0,0.1,0.1c0,0,0,0.1,0,0.1v0.3c0,0,0,0.1-0.1,0.1c0,0-0.1,0-0.1,0c0,0,0,0,0,0c-0.4-0.1-0.8-0.2-1.2-0.4
		c-0.4-0.2-0.7-0.5-1-0.7c-0.3-0.3-0.6-0.6-0.8-1V408c0,0.1,0,0.1-0.1,0.2c-0.1,0.1-0.1,0.1-0.2,0.1s-0.1,0-0.2-0.1
		C1016.6,408.2,1016.6,408.1,1016.6,408L1016.6,408z"/>
	<rect x="777.6" y="391.6" class="st11" width="56.4" height="14.8"/>
	<rect x="777.6" y="391.6" class="st12" width="56.4" height="14.8"/>
	<text transform="matrix(1.0009 0 0 1 838.207 425.0347)" class="st7 st4 st5">From H (76% of tot.): trend </text>
	<path d="M1025,427.8v-11.4c-0.2,0.4-0.5,0.7-0.8,1c-0.3,0.3-0.7,0.5-1,0.7c-0.4,0.2-0.8,0.4-1.2,0.4c0,0,0,0,0,0
		c-0.1,0-0.2,0-0.2-0.1v-0.3c0-0.1,0-0.1,0.1-0.2c0.6-0.1,1.1-0.4,1.6-0.7c0.5-0.3,0.9-0.8,1.2-1.2c0.3-0.5,0.5-1,0.6-1.6
		c0,0,0-0.1,0.1-0.1c0,0,0.1,0,0.1,0s0.1,0,0.1,0c0,0,0.1,0.1,0.1,0.1c0.1,0.9,0.5,1.6,1.1,2.3c0.6,0.7,1.4,1.1,2.2,1.3
		c0,0,0.1,0,0.1,0.1c0,0,0,0.1,0,0.1v0.3c0,0,0,0.1-0.1,0.1c0,0-0.1,0-0.1,0c0,0,0,0,0,0c-0.4-0.1-0.8-0.2-1.2-0.4
		c-0.4-0.2-0.7-0.5-1-0.7c-0.3-0.3-0.6-0.6-0.8-1v11.4c0,0.1,0,0.1-0.1,0.2c-0.1,0.1-0.1,0.1-0.2,0.1c-0.1,0-0.1,0-0.2-0.1
		C1025.1,427.9,1025,427.8,1025,427.8L1025,427.8z"/>
	<rect x="777.6" y="412" class="st13" width="56.4" height="14.8"/>
	<rect x="777.6" y="412" class="st12" width="56.4" height="14.8"/>
	<text transform="matrix(1.0009 0 0 1 838.207 445.4556)" class="st7 st4 st5">From L (18% of tot.): no trend</text>
	<rect x="777.6" y="432.4" class="st14" width="56.4" height="14.8"/>
	<rect x="777.6" y="432.4" class="st12" width="56.4" height="14.8"/>
	<text transform="matrix(1.0009 0 0 1 838.207 465.8638)" class="st7 st4 st5">Area burned, H | r = 0.7</text>
	<text transform="matrix(1.0009 0 0 1 994.7451 465.8638)" class="st7 st4 st5">8</text>
	<line class="st17" x1="777.6" y1="460.2" x2="834" y2="460.2"/>
	<rect x="772" y="365.9" class="st18" width="269.2" height="107"/>
	<rect x="1190.2" y="375.7" class="st1" width="143.8" height="229.5"/>
	<line class="st19" x1="1190.2" y1="605.3" x2="1333.9" y2="605.3"/>
	<path class="st11" d="M1254.9,605.3v-4.6h-57.5v4.6H1254.9z M1326.7,605.3v-9.9h-57.5v9.9H1326.7z"/>
	<path class="st12" d="M1197.3,605.3v-4.6h57.5v4.6H1197.3z M1269.2,605.3v-9.9h57.5v9.9H1269.2z"/>
	<path class="st13" d="M1254.9,600.7v-43.3h-57.5v43.3H1254.9z M1326.7,595.4V453.9h-57.5v141.4H1326.7z"/>
	<path class="st12" d="M1197.3,600.7v-43.3h57.5v43.3H1197.3z M1269.2,595.4V453.9h57.5v141.4H1269.2z"/>
	<path class="st14" d="M1254.9,557.4v-6.8h-57.5v6.8H1254.9z M1326.7,453.9v-38.1h-57.5v38.1H1326.7z"/>
	<path class="st12" d="M1197.3,557.4v-6.8h57.5v6.8H1197.3z M1269.2,453.9v-38.1h57.5v38.1H1269.2z"/>
	<text transform="matrix(1.0009 0 0 1 1206.3633 620.7773)" class="st7 st4 st5">1999-</text>
	<text transform="matrix(1.0009 0 0 1 1209.1797 640.4941)" class="st7 st4 st5">2009</text>
	<text transform="matrix(1.0009 0 0 1 1278.252 620.7773)" class="st7 st4 st5">2010-</text>
	<text transform="matrix(1.0009 0 0 1 1281.0693 640.4941)" class="st7 st4 st5">2020</text>
	<text transform="matrix(1.0009 0 0 1 1271.8994 410.9487)" class="st7 st4 st5">246%</text>
	<text transform="matrix(1.0009 0 0 1 1306.9785 410.9487)" class="st7 st4 st5"> </text>
	<path d="M1319.2,413.7v-11.4c-0.2,0.4-0.5,0.7-0.8,1c-0.3,0.3-0.7,0.5-1,0.7c-0.4,0.2-0.8,0.4-1.2,0.4c0,0,0,0,0,0
		c-0.1,0-0.2,0-0.2-0.1v-0.3c0-0.1,0-0.1,0.1-0.2c0.6-0.1,1.1-0.4,1.6-0.7c0.5-0.3,0.9-0.8,1.2-1.2c0.3-0.5,0.5-1,0.6-1.6
		c0,0,0-0.1,0.1-0.1c0,0,0.1,0,0.1,0s0.1,0,0.1,0c0,0,0.1,0.1,0.1,0.1c0.1,0.9,0.5,1.6,1.1,2.3c0.6,0.7,1.4,1.1,2.2,1.3
		c0,0,0.1,0,0.1,0.1c0,0,0,0.1,0,0.1v0.3c0,0,0,0.1-0.1,0.1c0,0-0.1,0-0.1,0c0,0,0,0,0,0c-0.4-0.1-0.8-0.2-1.2-0.4
		c-0.4-0.2-0.7-0.5-1-0.7c-0.3-0.3-0.6-0.6-0.8-1v11.4c0,0.1,0,0.1-0.1,0.2c-0.1,0.1-0.1,0.1-0.2,0.1c-0.1,0-0.1,0-0.2-0.1
		C1319.2,413.8,1319.2,413.7,1319.2,413.7L1319.2,413.7z"/>
	<text transform="matrix(1.0009 0 0 1 1271.8994 603.875)" class="st7 st4 st5">114%</text>
	<text transform="matrix(1.0009 0 0 1 1306.9785 603.875)" class="st7 st4 st5"> </text>
	<path d="M1319.2,606.6v-11.4c-0.2,0.4-0.5,0.7-0.8,1c-0.3,0.3-0.7,0.5-1,0.7c-0.4,0.2-0.8,0.4-1.2,0.4c0,0,0,0,0,0
		c-0.1,0-0.2,0-0.2-0.1V597c0-0.1,0-0.1,0.1-0.2c0.6-0.1,1.1-0.4,1.6-0.7c0.5-0.3,0.9-0.8,1.2-1.2c0.3-0.5,0.5-1,0.6-1.6
		c0,0,0-0.1,0.1-0.1c0,0,0.1,0,0.1,0s0.1,0,0.1,0c0,0,0.1,0.1,0.1,0.1c0.1,0.9,0.5,1.6,1.1,2.3c0.6,0.7,1.4,1.1,2.2,1.3
		c0,0,0.1,0,0.1,0.1c0,0,0,0.1,0,0.1v0.3c0,0,0,0.1-0.1,0.1c0,0-0.1,0-0.1,0c0,0,0,0,0,0c-0.4-0.1-0.8-0.2-1.2-0.4
		c-0.4-0.2-0.7-0.5-1-0.7c-0.3-0.3-0.6-0.6-0.8-1v11.4c0,0.1,0,0.1-0.1,0.2c-0.1,0.1-0.1,0.1-0.2,0.1c-0.1,0-0.1,0-0.2-0.1
		C1319.2,606.7,1319.2,606.7,1319.2,606.6L1319.2,606.6z"/>
	<text transform="matrix(1.0009 0 0 1 1271.8994 530.6362)" class="st7 st4 st5">227%</text>
	<text transform="matrix(1.0009 0 0 1 1306.9785 530.6362)" class="st7 st4 st5"> </text>
	<path d="M1319.2,533.4V522c-0.2,0.4-0.5,0.7-0.8,1c-0.3,0.3-0.7,0.5-1,0.7c-0.4,0.2-0.8,0.4-1.2,0.4c0,0,0,0,0,0
		c-0.1,0-0.2,0-0.2-0.1v-0.3c0-0.1,0-0.1,0.1-0.2c0.6-0.1,1.1-0.4,1.6-0.7c0.5-0.3,0.9-0.8,1.2-1.2c0.3-0.5,0.5-1,0.6-1.6
		c0,0,0-0.1,0.1-0.1c0,0,0.1,0,0.1,0s0.1,0,0.1,0c0,0,0.1,0.1,0.1,0.1c0.1,0.9,0.5,1.6,1.1,2.3c0.6,0.7,1.4,1.1,2.2,1.3
		c0,0,0.1,0,0.1,0.1c0,0,0,0.1,0,0.1v0.3c0,0,0,0.1-0.1,0.1c0,0-0.1,0-0.1,0c0,0,0,0,0,0c-0.4-0.1-0.8-0.2-1.2-0.4
		c-0.4-0.2-0.7-0.5-1-0.7c-0.3-0.3-0.6-0.6-0.8-1v11.4c0,0.1,0,0.1-0.1,0.2c-0.1,0.1-0.1,0.1-0.2,0.1c-0.1,0-0.1,0-0.2-0.1
		C1319.2,533.5,1319.2,533.4,1319.2,533.4L1319.2,533.4z"/>
	<text transform="matrix(1.0009 0 0 1 1271.8994 440.5269)" class="st7 st4 st5">459%</text>
	<text transform="matrix(1.0009 0 0 1 1306.9785 440.5269)" class="st7 st4 st5"> </text>
	<path d="M1319.2,443.2v-11.4c-0.2,0.4-0.5,0.7-0.8,1c-0.3,0.3-0.7,0.5-1,0.7c-0.4,0.2-0.8,0.4-1.2,0.4c0,0,0,0,0,0
		c-0.1,0-0.2,0-0.2-0.1v-0.3c0-0.1,0-0.1,0.1-0.2c0.6-0.1,1.1-0.4,1.6-0.7c0.5-0.3,0.9-0.8,1.2-1.2c0.3-0.5,0.5-1,0.6-1.6
		c0,0,0-0.1,0.1-0.1c0,0,0.1,0,0.1,0s0.1,0,0.1,0c0,0,0.1,0.1,0.1,0.1c0.1,0.9,0.5,1.6,1.1,2.3c0.6,0.7,1.4,1.1,2.2,1.3
		c0,0,0.1,0,0.1,0.1c0,0,0,0.1,0,0.1v0.3c0,0,0,0.1-0.1,0.1c0,0-0.1,0-0.1,0c0,0,0,0,0,0c-0.4-0.1-0.8-0.2-1.2-0.4
		c-0.4-0.2-0.7-0.5-1-0.7c-0.3-0.3-0.6-0.6-0.8-1v11.4c0,0.1,0,0.1-0.1,0.2c-0.1,0.1-0.1,0.1-0.2,0.1c-0.1,0-0.1,0-0.2-0.1
		C1319.2,443.4,1319.2,443.3,1319.2,443.2L1319.2,443.2z"/>
	<path class="st2" d="M1190.2,605.3h143.8 M1226.1,605.3v2.3 M1298,605.3v2.3"/>
	<path class="st2" d="M1190.2,605.3V375.7 M1190.2,605.3h-2.3 M1190.2,547.9h-2.3 M1190.2,490.5h-2.3 M1190.2,433.1h-2.3
		 M1190.2,375.7h-2.3"/>
	<text transform="matrix(1.0009 0 0 1 1176.3906 610.918)" class="st3 st4 st5">0</text>
	<text transform="matrix(1.0009 0 0 1 1167.9258 553.5254)" class="st3 st4 st5">20</text>
	<text transform="matrix(1.0009 0 0 1 1167.9258 496.144)" class="st3 st4 st5">40</text>
	<text transform="matrix(1.0009 0 0 1 1167.9258 438.7671)" class="st3 st4 st5">60</text>
	<text transform="matrix(1.0009 0 0 1 1167.9258 381.3716)" class="st3 st4 st5">80</text>
	<rect x="763.5" y="671.5" class="st1" width="314.3" height="229.5"/>
	<path class="st2" d="M763.5,901h314.3 M794.1,901v3.1 M860.7,901v3.1 M927.3,901v3.1 M993.9,901v3.1 M1060.5,901v3.1"/>
	<text transform="matrix(1.0009 0 0 1 777.2188 922.6484)" class="st3 st4 st5">2000</text>
	<text transform="matrix(1.0009 0 0 1 843.8252 922.6484)" class="st3 st4 st5">2005</text>
	<text transform="matrix(1.0009 0 0 1 910.417 922.6484)" class="st3 st4 st5">2010</text>
	<text transform="matrix(1.0009 0 0 1 977.0098 922.6484)" class="st3 st4 st5">2015</text>
	<text transform="matrix(1.0009 0 0 1 1043.6162 922.6484)" class="st3 st4 st5">2020</text>
	<text transform="matrix(1.0009 0 0 1 903.0518 943.7754)" class="st3 st4 st24">Year</text>
	<path class="st6" d="M763.5,901V671.5 M763.5,901h-3.1 M763.5,864.3h-3.1 M763.5,827.6h-3.1 M763.5,790.8h-3.1 M763.5,754.1h-3.1
		 M763.5,717.4h-3.1 M763.5,680.7h-3.1"/>
	<text transform="matrix(1.0009 0 0 1 748.8877 906.6582)" class="st7 st4 st5">0</text>
	<text transform="matrix(1.0009 0 0 1 748.8877 869.9219)" class="st7 st4 st5">2</text>
	<text transform="matrix(1.0009 0 0 1 748.8877 833.1855)" class="st7 st4 st5">4</text>
	<text transform="matrix(1.0009 0 0 1 748.8877 796.4766)" class="st7 st4 st5">6</text>
	<text transform="matrix(1.0009 0 0 1 748.8877 759.7402)" class="st7 st4 st5">8</text>
	<text transform="matrix(1.0009 0 0 1 740.4375 723.0039)" class="st7 st4 st5">10</text>
	<text transform="matrix(1.0009 0 0 1 740.4375 686.2969)" class="st7 st4 st5">12</text>
	<text transform="matrix(0 -0.9991 1 0 713.1787 853.8418)" class="st7 st4 st8">Structure loss rate</text>
	<text transform="matrix(0 -0.9991 1 0 734.3193 844.6719)" class="st7 st4 st8">(# / kha burned)</text>
	<path class="st6" d="M1077.8,901V671.5 M1077.8,901h3.1 M1077.8,839.8h3.1 M1077.8,778.6h3.1 M1077.8,717.4h3.1"/>
	<text transform="matrix(1.0009 0 0 1 1083.9922 906.6582)" class="st7 st4 st5">0</text>
	<text transform="matrix(1.0009 0 0 1 1083.9922 845.4492)" class="st7 st4 st5">500</text>
	<text transform="matrix(1.0009 0 0 1 1083.9922 784.2285)" class="st7 st4 st5">1000</text>
	<text transform="matrix(1.0009 0 0 1 1083.9922 723.0039)" class="st7 st4 st5">1500</text>
	<line class="st9" x1="763.5" y1="901" x2="1077.8" y2="901"/>
	<path class="st25" d="M787.5,901v-11.6h-13.3V901H787.5z M800.8,901v-11.2h-13.3V901H800.8z M814.1,901V896h-13.3v5.1H814.1z
		 M827.4,901v-26.6h-13.3V901H827.4z M840.8,901v-86.8h-13.3V901H840.8z M854.1,901v-40.7h-13.3V901H854.1z M867.4,901v-7.7h-13.3
		v7.7H867.4z M880.7,901v-6h-13.3v6H880.7z M894,901v-30.8h-13.3V901H894z M907.4,901v-38.5H894V901H907.4z M920.7,901v-20.9h-13.3
		V901H920.7z M934,901v-14.1h-13.3V901H934z M947.3,901V891H934V901H947.3z M960.6,901v-19.4h-13.3V901H960.6z M974,901v-29.1h-13.3
		V901H974z M987.3,901v-23.3H974V901H987.3z M1000.6,901v-41.8h-13.3V901H1000.6z M1013.9,901v-29.9h-13.3V901H1013.9z M1027.2,901
		v-75.4h-13.3V901H1027.2z M1040.5,901V725.4h-13.3V901H1040.5z M1053.9,901v-19.4h-13.3V901H1053.9z M1067.2,901v-80.9h-13.3V901
		H1067.2z"/>
	<path class="st12" d="M774.2,901v-11.6h13.3V901H774.2z M787.5,901v-11.2h13.3V901H787.5z M800.8,901V896h13.3v5.1H800.8z
		 M814.1,901v-26.6h13.3V901H814.1z M827.4,901v-86.8h13.3V901H827.4z M840.8,901v-40.7h13.3V901H840.8z M854.1,901v-7.7h13.3v7.7
		H854.1z M867.4,901v-6h13.3v6H867.4z M880.7,901v-30.8H894V901H880.7z M894,901v-38.5h13.3V901H894z M907.4,901v-20.9h13.3V901
		H907.4z M920.7,901v-14.1H934V901H920.7z M934,901V891h13.3V901H934z M947.3,901v-19.4h13.3V901H947.3z M960.6,901v-29.1H974V901
		H960.6z M974,901v-23.3h13.3V901H974z M987.3,901v-41.8h13.3V901H987.3z M1000.6,901v-29.9h13.3V901H1000.6z M1013.9,901v-75.4
		h13.3V901H1013.9z M1027.2,901V725.4h13.3V901H1027.2z M1040.5,901v-19.4h13.3V901H1040.5z M1053.9,901v-80.9h13.3V901H1053.9z"/>
	<g>
		<defs>
			<polygon id="SVGID_00000108300099653925995150000014941013971142454933_" points="763.5,671.5 1077.8,671.5 1077.8,901 
				763.5,901 763.5,671.5 			"/>
		</defs>
		<clipPath id="SVGID_00000086677364243855379650000005677989044753351304_">
			<use xlink:href="#SVGID_00000108300099653925995150000014941013971142454933_"  style="overflow:visible;"/>
		</clipPath>
		
			<polyline style="clip-path:url(#SVGID_00000086677364243855379650000005677989044753351304_);fill:none;stroke:#000000;stroke-width:2.001;stroke-linejoin:round;stroke-miterlimit:10;" points="
			780.8,861.9 794.1,848.4 807.5,885.5 820.8,828.5 834.1,846.5 847.4,884 860.7,864.3 874.1,850.5 887.4,831 900.7,869.2 
			914,873.1 927.3,879.6 940.7,805.2 954,839.5 967.3,866.7 980.6,880.7 993.9,854.1 1007.2,852.7 1020.6,815.7 1033.9,740.9 
			1047.2,882.7 1060.5,784.1 		"/>
	</g>
	<text transform="matrix(0 0.9991 -1 0 1129.3398 725.6914)" class="st7 st4 st16">Area burned (kha)</text>
	<rect x="779" y="661.6" class="st1" width="256.5" height="46.5"/>
	<text transform="matrix(1.0009 0 0 1 845.2627 679.916)" class="st7 st4 st5">Struc. loss rate (all): trend </text>
	<path d="M1025,682.6v-11.4c-0.2,0.4-0.5,0.7-0.8,1c-0.3,0.3-0.7,0.5-1,0.7c-0.4,0.2-0.8,0.4-1.2,0.4c0,0,0,0,0,0
		c-0.1,0-0.2,0-0.2-0.1v-0.3c0-0.1,0-0.1,0.1-0.2c0.6-0.1,1.1-0.4,1.6-0.7c0.5-0.3,0.9-0.8,1.2-1.2c0.3-0.5,0.5-1,0.6-1.6
		c0,0,0-0.1,0.1-0.1c0,0,0.1,0,0.1,0s0.1,0,0.1,0c0,0,0.1,0.1,0.1,0.1c0.1,0.9,0.5,1.6,1.1,2.3c0.6,0.7,1.4,1.1,2.2,1.3
		c0,0,0.1,0,0.1,0.1c0,0,0,0.1,0,0.1v0.3c0,0,0,0.1-0.1,0.1c0,0-0.1,0-0.1,0c0,0,0,0,0,0c-0.4-0.1-0.8-0.2-1.2-0.4
		c-0.4-0.2-0.7-0.5-1-0.7c-0.3-0.3-0.6-0.6-0.8-1v11.4c0,0.1,0,0.1-0.1,0.2c-0.1,0.1-0.1,0.1-0.2,0.1c-0.1,0-0.1,0-0.2-0.1
		C1025.1,682.8,1025,682.7,1025,682.6L1025,682.6z"/>
	<rect x="784.6" y="667" class="st25" width="56.4" height="15"/>
	<rect x="784.6" y="667" class="st12" width="56.4" height="15"/>
	<text transform="matrix(1.0009 0 0 1 845.2627 700.8516)" class="st7 st4 st5">Area burned, H | r = 0.4</text>
	<text transform="matrix(1.0009 0 0 1 1001.8037 700.8516)" class="st7 st4 st5">7</text>
	<line class="st17" x1="784.6" y1="695.2" x2="841" y2="695.2"/>
	<rect x="779" y="661.6" class="st18" width="256.5" height="46.5"/>
	<rect x="1190.2" y="671.5" class="st1" width="143.8" height="229.5"/>
	<line class="st19" x1="1190.2" y1="901" x2="1333.9" y2="901"/>
	<path class="st25" d="M1254.9,901v-74.4h-57.5V901H1254.9z M1326.7,901V707.4h-57.5V901H1326.7z"/>
	<path class="st12" d="M1197.3,901v-74.4h57.5V901H1197.3z M1269.2,901V707.4h57.5V901H1269.2z"/>
	<text transform="matrix(1.0009 0 0 1 1206.3633 916.502)" class="st7 st4 st5">1999-</text>
	<text transform="matrix(1.0009 0 0 1 1209.1797 936.2207)" class="st7 st4 st5">2009</text>
	<text transform="matrix(1.0009 0 0 1 1278.252 916.502)" class="st7 st4 st5">2010-</text>
	<text transform="matrix(1.0009 0 0 1 1281.0693 936.2207)" class="st7 st4 st5">2020</text>
	<text transform="matrix(1.0009 0 0 1 1271.8994 702.4512)" class="st7 st4 st5">160%</text>
	<text transform="matrix(1.0009 0 0 1 1306.9785 702.4512)" class="st7 st4 st5"> </text>
	<path d="M1319.2,705.2v-11.4c-0.2,0.4-0.5,0.7-0.8,1c-0.3,0.3-0.7,0.5-1,0.7c-0.4,0.2-0.8,0.4-1.2,0.4c0,0,0,0,0,0
		c-0.1,0-0.2,0-0.2-0.1v-0.3c0-0.1,0-0.1,0.1-0.2c0.6-0.1,1.1-0.4,1.6-0.7c0.5-0.3,0.9-0.8,1.2-1.2c0.3-0.5,0.5-1,0.6-1.6
		c0,0,0-0.1,0.1-0.1c0,0,0.1,0,0.1,0s0.1,0,0.1,0c0,0,0.1,0.1,0.1,0.1c0.1,0.9,0.5,1.6,1.1,2.3c0.6,0.7,1.4,1.1,2.2,1.3
		c0,0,0.1,0,0.1,0.1c0,0,0,0.1,0,0.1v0.3c0,0,0,0.1-0.1,0.1c0,0-0.1,0-0.1,0c0,0,0,0,0,0c-0.4-0.1-0.8-0.2-1.2-0.4
		c-0.4-0.2-0.7-0.5-1-0.7c-0.3-0.3-0.6-0.6-0.8-1v11.4c0,0.1,0,0.1-0.1,0.2c-0.1,0.1-0.1,0.1-0.2,0.1c-0.1,0-0.1,0-0.2-0.1
		C1319.2,705.3,1319.2,705.3,1319.2,705.2L1319.2,705.2z"/>
	<path class="st2" d="M1190.2,901h143.8 M1226.1,901v2.3 M1298,901v2.3"/>
	<path class="st2" d="M1190.2,901V671.5 M1190.2,901h-2.3 M1190.2,843.6h-2.3 M1190.2,786.2h-2.3 M1190.2,728.9h-2.3 M1190.2,671.5
		h-2.3"/>
	<text transform="matrix(1.0009 0 0 1 1176.3906 906.6582)" class="st3 st4 st5">0</text>
	<text transform="matrix(1.0009 0 0 1 1176.3906 849.2637)" class="st3 st4 st5">1</text>
	<text transform="matrix(1.0009 0 0 1 1176.3906 791.8711)" class="st3 st4 st5">2</text>
	<text transform="matrix(1.0009 0 0 1 1176.3906 734.4922)" class="st3 st4 st5">3</text>
	<text transform="matrix(1.0009 0 0 1 1176.3906 677.1133)" class="st3 st4 st5">4</text>
</g>
<rect x="692.3" y="85.2" class="st27" width="50.4" height="47.5"/>
<text transform="matrix(1 0 0 1 692.3398 101.356)" class="st28 st29">A</text>
<rect x="692.3" y="381.3" class="st27" width="50.4" height="47.5"/>
<text transform="matrix(1 0 0 1 692.3398 397.3999)" class="st28 st29">B</text>
<rect x="692.3" y="671.6" class="st27" width="50.4" height="47.5"/>
<text transform="matrix(1 0 0 1 692.3398 687.6855)" class="st28 st29">C</text>
</svg>
