<?xml version="1.0" encoding="utf-8"?>
<!-- Generator: Adobe Illustrator 26.5.0, SVG Export Plug-In . SVG Version: 6.00 Build 0)  -->
<svg version="1.1" id="Layer_1" xmlns="http://www.w3.org/2000/svg" xmlns:xlink="http://www.w3.org/1999/xlink" x="0px" y="0px"
	 viewBox="0 0 1920 1080" style="enable-background:new 0 0 1920 1080;" xml:space="preserve">
<style type="text/css">
	.st0{clip-path:url(#SVGID_00000117646955224658943100000013524962565302075320_);fill:#FFFFFF;}
</style>
<g>
	<g>
		<defs>
			<rect id="SVGID_1_" x="40" y="259.9" width="1860.4" height="568.6"/>
		</defs>
		<clipPath id="SVGID_00000018924894289981452980000000841720658952554638_">
			<use xlink:href="#SVGID_1_"  style="overflow:visible;"/>
		</clipPath>
		
			<rect x="40" y="259.9" style="clip-path:url(#SVGID_00000018924894289981452980000000841720658952554638_);fill:#FFFFFF;" width="1861" height="568.6"/>
	</g>
	<g>
		<defs>
			<rect id="SVGID_00000136394994721216243530000016359106213910435461_" x="40" y="259.9" width="1860.4" height="568.6"/>
		</defs>
		<clipPath id="SVGID_00000153669331899157101920000000546086776578272642_">
			<use xlink:href="#SVGID_00000136394994721216243530000016359106213910435461_"  style="overflow:visible;"/>
		</clipPath>
		<g style="clip-path:url(#SVGID_00000153669331899157101920000000546086776578272642_);">
			
				<image style="overflow:visible;" width="1021" height="312" xlink:href="43933212.jpg"  transform="matrix(0.2918 0 0 0.2918 40 737.4686)">
			</image>
		</g>
		<g style="clip-path:url(#SVGID_00000153669331899157101920000000546086776578272642_);">
			
				<image style="overflow:visible;" width="1021" height="312" xlink:href="43933216.jpg"  transform="matrix(0.2918 0 0 0.2918 337.9048 737.4686)">
			</image>
		</g>
		<g style="clip-path:url(#SVGID_00000153669331899157101920000000546086776578272642_);">
			
				<image style="overflow:visible;" width="1021" height="312" xlink:href="43933211.jpg"  transform="matrix(0.2918 0 0 0.2918 635.8096 737.4686)">
			</image>
		</g>
		
			<g transform="matrix(1 0 0 1 -6.103516e-05 0)" style="clip-path:url(#SVGID_00000153669331899157101920000000546086776578272642_);">
			
				<image style="overflow:visible;" width="1021" height="312" xlink:href="43933213.jpg"  transform="matrix(0.2918 0 0 0.2918 933.7145 737.4686)">
			</image>
		</g>
		<g style="clip-path:url(#SVGID_00000153669331899157101920000000546086776578272642_);">
			
				<image style="overflow:visible;" width="1021" height="312" xlink:href="43933210.jpg"  transform="matrix(0.2918 0 0 0.2918 1231.6193 737.4686)">
			</image>
		</g>
		
			<g transform="matrix(1 0 0 1 1.220703e-04 0)" style="clip-path:url(#SVGID_00000153669331899157101920000000546086776578272642_);">
			
				<image style="overflow:visible;" width="1021" height="312" xlink:href="4393321E.jpg"  transform="matrix(0.2918 0 0 0.2918 1529.5242 737.4686)">
			</image>
		</g>
		
			<g transform="matrix(1 0 0 1 -1.220703e-04 0)" style="clip-path:url(#SVGID_00000153669331899157101920000000546086776578272642_);">
			
				<image style="overflow:visible;" width="252" height="312" xlink:href="43933215.jpg"  transform="matrix(0.2918 0 0 0.2918 1827.429 737.4686)">
			</image>
		</g>
	</g>
	
		<image style="overflow:visible;" width="1021" height="312" xlink:href="43933217.jpg"  transform="matrix(0.2918 0 0 0.2918 40 646.4418)">
	</image>
	
		<image style="overflow:visible;" width="1021" height="312" xlink:href="43933214.jpg"  transform="matrix(0.2918 0 0 0.2918 337.9048 646.4418)">
	</image>
	
		<image style="overflow:visible;" width="1021" height="312" xlink:href="C4463CE5.jpg"  transform="matrix(0.2918 0 0 0.2918 635.8096 646.4418)">
	</image>
	
		<image style="overflow:visible;" width="1021" height="312" xlink:href="C4463CFB.jpg"  transform="matrix(0.2918 0 0 0.2918 933.7145 646.4418)">
	</image>
	
		<image style="overflow:visible;" width="1021" height="312" xlink:href="C4463CFD.jpg"  transform="matrix(0.2918 0 0 0.2918 1231.6193 646.4418)">
	</image>
	
		<image style="overflow:visible;" width="1021" height="312" xlink:href="C4463CFF.jpg"  transform="matrix(0.2918 0 0 0.2918 1529.5242 646.4418)">
	</image>
	<g>
		<defs>
			<rect id="SVGID_00000132806202168490691300000009528267809745782929_" x="40" y="259.9" width="1860.4" height="568.6"/>
		</defs>
		<clipPath id="SVGID_00000180360722012188498060000016420642819359714983_">
			<use xlink:href="#SVGID_00000132806202168490691300000009528267809745782929_"  style="overflow:visible;"/>
		</clipPath>
		
			<g transform="matrix(1 0 0 1 -1.220703e-04 0)" style="clip-path:url(#SVGID_00000180360722012188498060000016420642819359714983_);">
			
				<image style="overflow:visible;" width="252" height="312" xlink:href="C4463CFC.jpg"  transform="matrix(0.2918 0 0 0.2918 1827.429 646.4418)">
			</image>
		</g>
	</g>
	
		<image style="overflow:visible;" width="1021" height="312" xlink:href="C4463CE4.jpg"  transform="matrix(0.2918 0 0 0.2918 40 555.415)">
	</image>
	
		<image style="overflow:visible;" width="1021" height="312" xlink:href="C4463CE7.jpg"  transform="matrix(0.2918 0 0 0.2918 337.9048 555.415)">
	</image>
	
		<image style="overflow:visible;" width="1021" height="312" xlink:href="C4463CE2.jpg"  transform="matrix(0.2918 0 0 0.2918 635.8096 555.415)">
	</image>
	
		<image style="overflow:visible;" width="1021" height="312" xlink:href="C4463CE3.jpg"  transform="matrix(0.2918 0 0 0.2918 933.7145 555.415)">
	</image>
	
		<image style="overflow:visible;" width="1021" height="312" xlink:href="C4463CEB.jpg"  transform="matrix(0.2918 0 0 0.2918 1231.6193 555.415)">
	</image>
	
		<image style="overflow:visible;" width="1021" height="312" xlink:href="C4463D00.jpg"  transform="matrix(0.2918 0 0 0.2918 1529.5242 555.415)">
	</image>
	<g>
		<defs>
			<rect id="SVGID_00000086689622512038894120000006779348872243973804_" x="40" y="259.9" width="1860.4" height="568.6"/>
		</defs>
		<clipPath id="SVGID_00000144331727480990492770000005700326308292330152_">
			<use xlink:href="#SVGID_00000086689622512038894120000006779348872243973804_"  style="overflow:visible;"/>
		</clipPath>
		
			<g transform="matrix(1 0 0 1 -1.220703e-04 0)" style="clip-path:url(#SVGID_00000144331727480990492770000005700326308292330152_);">
			
				<image style="overflow:visible;" width="252" height="312" xlink:href="C4463D03.jpg"  transform="matrix(0.2918 0 0 0.2918 1827.429 555.415)">
			</image>
		</g>
	</g>
	
		<image style="overflow:visible;" width="1021" height="312" xlink:href="C4463D01.jpg"  transform="matrix(0.2918 0 0 0.2918 40 464.3882)">
	</image>
	
		<image style="overflow:visible;" width="1021" height="312" xlink:href="C4463D0F.jpg"  transform="matrix(0.2918 0 0 0.2918 337.9048 464.3882)">
	</image>
	
		<image style="overflow:visible;" width="1021" height="312" xlink:href="C4463D02.jpg"  transform="matrix(0.2918 0 0 0.2918 635.8096 464.3882)">
	</image>
	
		<image style="overflow:visible;" width="1021" height="312" xlink:href="C4463D05.jpg"  transform="matrix(0.2918 0 0 0.2918 933.7145 464.3882)">
	</image>
	
		<image style="overflow:visible;" width="1021" height="312" xlink:href="C4463D06.jpg"  transform="matrix(0.2918 0 0 0.2918 1231.6193 464.3882)">
	</image>
	
		<image style="overflow:visible;" width="1021" height="312" xlink:href="C4463D07.jpg"  transform="matrix(0.2918 0 0 0.2918 1529.5242 464.3882)">
	</image>
	<g>
		<defs>
			<rect id="SVGID_00000030450457728248314180000013981902711776737177_" x="40" y="259.9" width="1860.4" height="568.6"/>
		</defs>
		<clipPath id="SVGID_00000094617833319265231000000000702487170115810743_">
			<use xlink:href="#SVGID_00000030450457728248314180000013981902711776737177_"  style="overflow:visible;"/>
		</clipPath>
		
			<g transform="matrix(1 0 0 1 -1.220703e-04 0)" style="clip-path:url(#SVGID_00000094617833319265231000000000702487170115810743_);">
			
				<image style="overflow:visible;" width="252" height="312" xlink:href="C4463D3C.jpg"  transform="matrix(0.2918 0 0 0.2918 1827.429 464.3882)">
			</image>
		</g>
	</g>
	
		<image style="overflow:visible;" width="1021" height="312" xlink:href="C4463D3D.jpg"  transform="matrix(0.2918 0 0 0.2918 40 373.3614)">
	</image>
	
		<image style="overflow:visible;" width="1021" height="312" xlink:href="C4463D27.jpg"  transform="matrix(0.2918 0 0 0.2918 337.9048 373.3614)">
	</image>
	
		<image style="overflow:visible;" width="1021" height="312" xlink:href="C4463D25.jpg"  transform="matrix(0.2918 0 0 0.2918 635.8096 373.3614)">
	</image>
	
		<image style="overflow:visible;" width="1021" height="312" xlink:href="C4463D1B.jpg"  transform="matrix(0.2918 0 0 0.2918 933.7145 373.3614)">
	</image>
	
		<image style="overflow:visible;" width="1021" height="312" xlink:href="C4463D1D.jpg"  transform="matrix(0.2918 0 0 0.2918 1231.6193 373.3614)">
	</image>
	
		<image style="overflow:visible;" width="1021" height="312" xlink:href="C4463D1F.jpg"  transform="matrix(0.2918 0 0 0.2918 1529.5242 373.3614)">
	</image>
	<g>
		<defs>
			<rect id="SVGID_00000134231135329221221240000014908697119002511004_" x="40" y="259.9" width="1860.4" height="568.6"/>
		</defs>
		<clipPath id="SVGID_00000064329383785580307240000009195916511637216926_">
			<use xlink:href="#SVGID_00000134231135329221221240000014908697119002511004_"  style="overflow:visible;"/>
		</clipPath>
		
			<g transform="matrix(1 0 0 1 -1.220703e-04 0)" style="clip-path:url(#SVGID_00000064329383785580307240000009195916511637216926_);">
			
				<image style="overflow:visible;" width="252" height="312" xlink:href="C4463D1A.jpg"  transform="matrix(0.2918 0 0 0.2918 1827.429 373.3614)">
			</image>
		</g>
	</g>
	
		<image style="overflow:visible;" width="1021" height="312" xlink:href="C4463D19.jpg"  transform="matrix(0.2918 0 0 0.2918 40 282.3346)">
	</image>
	
		<image style="overflow:visible;" width="1021" height="312" xlink:href="C4463D65.jpg"  transform="matrix(0.2918 0 0 0.2918 337.9048 282.3346)">
	</image>
	
		<image style="overflow:visible;" width="1021" height="312" xlink:href="C4463D67.jpg"  transform="matrix(0.2918 0 0 0.2918 635.8096 282.3346)">
	</image>
	
		<image style="overflow:visible;" width="1021" height="312" xlink:href="C4463D6A.jpg"  transform="matrix(0.2918 0 0 0.2918 933.7145 282.3346)">
	</image>
	
		<image style="overflow:visible;" width="1021" height="312" xlink:href="C4463D76.jpg"  transform="matrix(0.2918 0 0 0.2918 1231.6193 282.3346)">
	</image>
	
		<image style="overflow:visible;" width="1021" height="312" xlink:href="C4463D75.jpg"  transform="matrix(0.2918 0 0 0.2918 1529.5242 282.3346)">
	</image>
	<g>
		<defs>
			<rect id="SVGID_00000098197465714229697330000005484979565307412876_" x="40" y="259.9" width="1860.4" height="568.6"/>
		</defs>
		<clipPath id="SVGID_00000126305176246132835160000008553776876612164761_">
			<use xlink:href="#SVGID_00000098197465714229697330000005484979565307412876_"  style="overflow:visible;"/>
		</clipPath>
		
			<g transform="matrix(1 0 0 1 -1.220703e-04 0)" style="clip-path:url(#SVGID_00000126305176246132835160000008553776876612164761_);">
			
				<image style="overflow:visible;" width="252" height="312" xlink:href="C4463D4A.jpg"  transform="matrix(0.2918 0 0 0.2918 1827.429 282.3346)">
			</image>
		</g>
	</g>
	
		<image style="overflow:visible;" width="1021" height="77" xlink:href="C4463D4D.jpg"  transform="matrix(0.2918 0 0 0.2918 40 259.8696)">
	</image>
	
		<image style="overflow:visible;" width="1021" height="77" xlink:href="C4463D4E.jpg"  transform="matrix(0.2918 0 0 0.2918 337.9048 259.8696)">
	</image>
	
		<image style="overflow:visible;" width="1021" height="77" xlink:href="C4463D4C.jpg"  transform="matrix(0.2918 0 0 0.2918 635.8096 259.8696)">
	</image>
	
		<image style="overflow:visible;" width="1021" height="77" xlink:href="C4463D4B.jpg"  transform="matrix(0.2918 0 0 0.2918 933.7145 259.8696)">
	</image>
	
		<image style="overflow:visible;" width="1021" height="77" xlink:href="C4463D55.jpg"  transform="matrix(0.2918 0 0 0.2918 1231.6193 259.8696)">
	</image>
	
		<image style="overflow:visible;" width="1021" height="77" xlink:href="C4463D56.jpg"  transform="matrix(0.2918 0 0 0.2918 1529.5242 259.8696)">
	</image>
	<g>
		<defs>
			<rect id="SVGID_00000153664202356549214890000013776879077106997916_" x="40" y="259.9" width="1860.4" height="568.6"/>
		</defs>
		<clipPath id="SVGID_00000173146364145825732190000016473459035281149091_">
			<use xlink:href="#SVGID_00000153664202356549214890000013776879077106997916_"  style="overflow:visible;"/>
		</clipPath>
		<g style="clip-path:url(#SVGID_00000173146364145825732190000016473459035281149091_);">
			
				<image style="overflow:visible;" width="252" height="77" xlink:href="C4463D54.jpg"  transform="matrix(0.2918 0 0 0.2918 1827.429 259.8696)">
			</image>
		</g>
	</g>
</g>
</svg>
