<?xml version="1.0" encoding="utf-8"?>
<!-- Generator: Adobe Illustrator 26.5.0, SVG Export Plug-In . SVG Version: 6.00 Build 0)  -->
<svg version="1.1" id="Layer_1" xmlns="http://www.w3.org/2000/svg" xmlns:xlink="http://www.w3.org/1999/xlink" x="0px" y="0px"
	 viewBox="0 0 1920 1080" style="enable-background:new 0 0 1920 1080;" xml:space="preserve">
<style type="text/css">
	.st0{fill:#FFFFFF;}
	.st1{fill:none;}
	.st2{font-family:'Arial-BoldMT';}
	.st3{font-size:29.4194px;}
	.st4{letter-spacing:37;}
	.st5{letter-spacing:80;}
	.st6{letter-spacing:39;}
</style>
<g>
	<rect x="132.1" y="17.3" class="st0" width="1647.5" height="1040.7"/>
	<g>
		<defs>
			<polygon id="SVGID_1_" points="132.1,17.3 1779.6,17.3 1779.6,1058 132.1,1058 132.1,17.3 			"/>
		</defs>
		<clipPath id="SVGID_00000065050845915734541440000000464827443740167355_">
			<use xlink:href="#SVGID_1_"  style="overflow:visible;"/>
		</clipPath>
		<g style="clip-path:url(#SVGID_00000065050845915734541440000000464827443740167355_);">
			
				<image style="overflow:visible;" width="896" height="566" xlink:href="1AABEEB0.jpg"  transform="matrix(0.2942 0 0 0.2941 132.129 891.5066)">
			</image>
		</g>
		<g style="clip-path:url(#SVGID_00000065050845915734541440000000464827443740167355_);">
			
				<image style="overflow:visible;" width="896" height="566" xlink:href="1AABEEB1.jpg"  transform="matrix(0.2942 0 0 0.2941 395.7264 891.5066)">
			</image>
		</g>
	</g>
	<g>
		<defs>
			<polygon id="SVGID_00000133530536625350317950000017063669587024087996_" points="132.1,17.3 1779.6,17.3 1779.6,1058 
				132.1,1058 132.1,17.3 			"/>
		</defs>
		<clipPath id="SVGID_00000097495954268509003280000016162353248190106808_">
			<use xlink:href="#SVGID_00000133530536625350317950000017063669587024087996_"  style="overflow:visible;"/>
		</clipPath>
		<g style="clip-path:url(#SVGID_00000097495954268509003280000016162353248190106808_);">
			
				<image style="overflow:visible;" width="896" height="566" xlink:href="1AABEEB7.jpg"  transform="matrix(0.2942 0 0 0.2941 659.3239 891.5066)">
			</image>
		</g>
	</g>
	<g>
		<defs>
			<polygon id="SVGID_00000103980556736022375880000017527611394305209738_" points="132.1,17.3 1779.6,17.3 1779.6,1058 
				132.1,1058 132.1,17.3 			"/>
		</defs>
		<clipPath id="SVGID_00000168817497877095370520000003917560297192603039_">
			<use xlink:href="#SVGID_00000103980556736022375880000017527611394305209738_"  style="overflow:visible;"/>
		</clipPath>
		<g style="clip-path:url(#SVGID_00000168817497877095370520000003917560297192603039_);">
			
				<image style="overflow:visible;" width="896" height="566" xlink:href="1AABEEB2.jpg"  transform="matrix(0.2942 0 0 0.2941 922.9214 891.5066)">
			</image>
		</g>
		<g style="clip-path:url(#SVGID_00000168817497877095370520000003917560297192603039_);">
			
				<image style="overflow:visible;" width="896" height="566" xlink:href="1AABEEB3.jpg"  transform="matrix(0.2942 0 0 0.2941 1186.5188 891.5066)">
			</image>
		</g>
		<g style="clip-path:url(#SVGID_00000168817497877095370520000003917560297192603039_);">
			
				<image style="overflow:visible;" width="896" height="566" xlink:href="1AABEEBE.jpg"  transform="matrix(0.2942 0 0 0.2941 1450.1161 891.5066)">
			</image>
		</g>
	</g>
	<g>
		<defs>
			<polygon id="SVGID_00000178168393025625427090000017436161050258483084_" points="132.1,17.3 1779.6,17.3 1779.6,1058 
				132.1,1058 132.1,17.3 			"/>
		</defs>
		<clipPath id="SVGID_00000165937034845702724170000016411335978946909340_">
			<use xlink:href="#SVGID_00000178168393025625427090000017436161050258483084_"  style="overflow:visible;"/>
		</clipPath>
		<g style="clip-path:url(#SVGID_00000165937034845702724170000016411335978946909340_);">
			
				<image style="overflow:visible;" width="224" height="566" xlink:href="1AABEEBF.jpg"  transform="matrix(0.2942 0 0 0.2941 1713.7137 891.5066)">
			</image>
		</g>
	</g>
	
		<image style="overflow:visible;" width="896" height="566" xlink:href="1AABEEB4.jpg"  transform="matrix(0.2942 0 0 0.2941 132.129 725.0166)">
	</image>
	
		<image style="overflow:visible;" width="896" height="566" xlink:href="1AABEEB5.jpg"  transform="matrix(0.2942 0 0 0.2941 395.7264 725.0166)">
	</image>
	
		<image style="overflow:visible;" width="896" height="566" xlink:href="DAD97FCF.jpg"  transform="matrix(0.2942 0 0 0.2941 659.3239 725.0166)">
	</image>
	
		<image style="overflow:visible;" width="896" height="566" xlink:href="DAD97FCD.jpg"  transform="matrix(0.2942 0 0 0.2941 922.9214 725.0166)">
	</image>
	
		<image style="overflow:visible;" width="896" height="566" xlink:href="DAD97FCB.jpg"  transform="matrix(0.2942 0 0 0.2941 1186.5188 725.0166)">
	</image>
	
		<image style="overflow:visible;" width="896" height="566" xlink:href="DAD97FC5.jpg"  transform="matrix(0.2942 0 0 0.2941 1450.1161 725.0166)">
	</image>
	<g>
		<defs>
			<polygon id="SVGID_00000082358897712390522620000009038579955292911539_" points="132.1,17.3 1779.6,17.3 1779.6,1058 
				132.1,1058 132.1,17.3 			"/>
		</defs>
		<clipPath id="SVGID_00000131330053331474287160000010511182285573552056_">
			<use xlink:href="#SVGID_00000082358897712390522620000009038579955292911539_"  style="overflow:visible;"/>
		</clipPath>
		<g style="clip-path:url(#SVGID_00000131330053331474287160000010511182285573552056_);">
			
				<image style="overflow:visible;" width="224" height="566" xlink:href="DAD97FC7.jpg"  transform="matrix(0.2942 0 0 0.2941 1713.7137 725.0166)">
			</image>
		</g>
	</g>
	
		<image style="overflow:visible;" width="896" height="566" xlink:href="DAD97FDA.jpg"  transform="matrix(0.2942 0 0 0.2941 132.129 558.5265)">
	</image>
	
		<image style="overflow:visible;" width="896" height="566" xlink:href="DAD97FDB.jpg"  transform="matrix(0.2942 0 0 0.2941 395.7264 558.5265)">
	</image>
	
		<image style="overflow:visible;" width="896" height="566" xlink:href="DAD97FDD.jpg"  transform="matrix(0.2942 0 0 0.2941 659.3239 558.5265)">
	</image>
	
		<image style="overflow:visible;" width="896" height="566" xlink:href="DAD97FDF.jpg"  transform="matrix(0.2942 0 0 0.2941 922.9214 558.5265)">
	</image>
	
		<image style="overflow:visible;" width="896" height="566" xlink:href="DAD97FD8.jpg"  transform="matrix(0.2942 0 0 0.2941 1186.5188 558.5265)">
	</image>
	
		<image style="overflow:visible;" width="896" height="566" xlink:href="DAD97FFE.jpg"  transform="matrix(0.2942 0 0 0.2941 1450.1161 558.5265)">
	</image>
	<g>
		<defs>
			<polygon id="SVGID_00000084527274554510692940000015759798037261261473_" points="132.1,17.3 1779.6,17.3 1779.6,1058 
				132.1,1058 132.1,17.3 			"/>
		</defs>
		<clipPath id="SVGID_00000052821103409133643080000012947125092973683589_">
			<use xlink:href="#SVGID_00000084527274554510692940000015759798037261261473_"  style="overflow:visible;"/>
		</clipPath>
		<g style="clip-path:url(#SVGID_00000052821103409133643080000012947125092973683589_);">
			
				<image style="overflow:visible;" width="224" height="566" xlink:href="DAD97FFD.jpg"  transform="matrix(0.2942 0 0 0.2941 1713.7137 558.5265)">
			</image>
		</g>
	</g>
	
		<image style="overflow:visible;" width="896" height="566" xlink:href="DAD97FFA.jpg"  transform="matrix(0.2942 0 0 0.2941 132.129 392.0365)">
	</image>
	
		<image style="overflow:visible;" width="896" height="566" xlink:href="DAD97FF5.jpg"  transform="matrix(0.2942 0 0 0.2941 395.7264 392.0365)">
	</image>
	
		<image style="overflow:visible;" width="896" height="566" xlink:href="DAD97FF6.jpg"  transform="matrix(0.2942 0 0 0.2941 659.3239 392.0365)">
	</image>
	
		<image style="overflow:visible;" width="896" height="566" xlink:href="DAD97FF4.jpg"  transform="matrix(0.2942 0 0 0.2941 922.9214 392.0365)">
	</image>
	
		<image style="overflow:visible;" width="896" height="566" xlink:href="DAD97FEA.jpg"  transform="matrix(0.2942 0 0 0.2941 1186.5188 392.0365)">
	</image>
	
		<image style="overflow:visible;" width="896" height="566" xlink:href="DAD97FED.jpg"  transform="matrix(0.2942 0 0 0.2941 1450.1161 392.0365)">
	</image>
	<g>
		<defs>
			<polygon id="SVGID_00000059295888139000440700000004331193015804595130_" points="132.1,17.3 1779.6,17.3 1779.6,1058 
				132.1,1058 132.1,17.3 			"/>
		</defs>
		<clipPath id="SVGID_00000002355673431497294270000011693268145603495835_">
			<use xlink:href="#SVGID_00000059295888139000440700000004331193015804595130_"  style="overflow:visible;"/>
		</clipPath>
		<g style="clip-path:url(#SVGID_00000002355673431497294270000011693268145603495835_);">
			
				<image style="overflow:visible;" width="224" height="566" xlink:href="DAD97FEE.jpg"  transform="matrix(0.2942 0 0 0.2941 1713.7137 392.0365)">
			</image>
		</g>
	</g>
	
		<image style="overflow:visible;" width="896" height="566" xlink:href="DAD97FEC.jpg"  transform="matrix(0.2942 0 0 0.2941 132.129 225.5465)">
	</image>
	
		<image style="overflow:visible;" width="896" height="566" xlink:href="DAD98011.jpg"  transform="matrix(0.2942 0 0 0.2941 395.7264 225.5465)">
	</image>
	
		<image style="overflow:visible;" width="896" height="566" xlink:href="DAD9800F.jpg"  transform="matrix(0.2942 0 0 0.2941 659.3239 225.5465)">
	</image>
	
		<image style="overflow:visible;" width="896" height="566" xlink:href="DAD98031.jpg"  transform="matrix(0.2942 0 0 0.2941 922.9214 225.5465)">
	</image>
	
		<image style="overflow:visible;" width="896" height="566" xlink:href="DAD98033.jpg"  transform="matrix(0.2942 0 0 0.2941 1186.5188 225.5465)">
	</image>
	
		<image style="overflow:visible;" width="896" height="566" xlink:href="DAD98030.jpg"  transform="matrix(0.2942 0 0 0.2941 1450.1161 225.5465)">
	</image>
	<g>
		<defs>
			<polygon id="SVGID_00000108301118243869064550000010230491595569769370_" points="132.1,17.3 1779.6,17.3 1779.6,1058 
				132.1,1058 132.1,17.3 			"/>
		</defs>
		<clipPath id="SVGID_00000070081901442662298880000010732568989797228175_">
			<use xlink:href="#SVGID_00000108301118243869064550000010230491595569769370_"  style="overflow:visible;"/>
		</clipPath>
		<g style="clip-path:url(#SVGID_00000070081901442662298880000010732568989797228175_);">
			
				<image style="overflow:visible;" width="224" height="566" xlink:href="DAD98037.jpg"  transform="matrix(0.2942 0 0 0.2941 1713.7137 225.5465)">
			</image>
		</g>
	</g>
	
		<image style="overflow:visible;" width="896" height="566" xlink:href="DAD98032.jpg"  transform="matrix(0.2942 0 0 0.2941 132.129 59.0564)">
	</image>
	
		<image style="overflow:visible;" width="896" height="566" xlink:href="DAD9803E.jpg"  transform="matrix(0.2942 0 0 0.2941 395.7264 59.0564)">
	</image>
	
		<image style="overflow:visible;" width="896" height="566" xlink:href="DAD9803F.jpg"  transform="matrix(0.2942 0 0 0.2941 659.3239 59.0564)">
	</image>
	
		<image style="overflow:visible;" width="896" height="566" xlink:href="DAD98034.jpg"  transform="matrix(0.2942 0 0 0.2941 922.9214 59.0564)">
	</image>
	
		<image style="overflow:visible;" width="896" height="566" xlink:href="DAD9801C.jpg"  transform="matrix(0.2942 0 0 0.2941 1186.5188 59.0564)">
	</image>
	
		<image style="overflow:visible;" width="896" height="566" xlink:href="DAD9801F.jpg"  transform="matrix(0.2942 0 0 0.2941 1450.1161 59.0564)">
	</image>
	<g>
		<defs>
			<polygon id="SVGID_00000158751679169759946960000000349557652892505746_" points="132.1,17.3 1779.6,17.3 1779.6,1058 
				132.1,1058 132.1,17.3 			"/>
		</defs>
		<clipPath id="SVGID_00000181785115301771423010000014890966868696440241_">
			<use xlink:href="#SVGID_00000158751679169759946960000000349557652892505746_"  style="overflow:visible;"/>
		</clipPath>
		<g style="clip-path:url(#SVGID_00000181785115301771423010000014890966868696440241_);">
			
				<image style="overflow:visible;" width="224" height="566" xlink:href="DAD9801D.jpg"  transform="matrix(0.2942 0 0 0.2941 1713.7137 59.0564)">
			</image>
		</g>
	</g>
	
		<image style="overflow:visible;" width="896" height="142" xlink:href="DAD9801B.jpg"  transform="matrix(0.2942 0 0 0.2941 132.129 17.2869)">
	</image>
	
		<image style="overflow:visible;" width="896" height="142" xlink:href="DAD98014.jpg"  transform="matrix(0.2942 0 0 0.2941 395.7264 17.2869)">
	</image>
	
		<image style="overflow:visible;" width="896" height="142" xlink:href="DAD98017.jpg"  transform="matrix(0.2942 0 0 0.2941 659.3239 17.2869)">
	</image>
	
		<image style="overflow:visible;" width="896" height="142" xlink:href="DAD98015.jpg"  transform="matrix(0.2942 0 0 0.2941 922.9214 17.2869)">
	</image>
	
		<image style="overflow:visible;" width="896" height="142" xlink:href="DAD9800B.jpg"  transform="matrix(0.2942 0 0 0.2941 1186.5188 17.2869)">
	</image>
	
		<image style="overflow:visible;" width="896" height="142" xlink:href="DAD9800C.jpg"  transform="matrix(0.2942 0 0 0.2941 1450.1161 17.2869)">
	</image>
	<g>
		<defs>
			<polygon id="SVGID_00000142166805169930370630000007313450798353849770_" points="132.1,17.3 1779.6,17.3 1779.6,1058 
				132.1,1058 132.1,17.3 			"/>
		</defs>
		<clipPath id="SVGID_00000177470901853143782600000018272977953760063415_">
			<use xlink:href="#SVGID_00000142166805169930370630000007313450798353849770_"  style="overflow:visible;"/>
		</clipPath>
		<g transform="matrix(1 0 0 1 0 0)" style="clip-path:url(#SVGID_00000177470901853143782600000018272977953760063415_);">
			
				<image style="overflow:visible;" width="224" height="142" xlink:href="DAD9800E.jpg"  transform="matrix(0.2942 0 0 0.2941 1713.7137 17.2869)">
			</image>
		</g>
	</g>
</g>
<rect x="271.3" y="68.9" class="st1" width="983.4" height="35.4"/>
<text transform="matrix(1 0 0 1 271.2822 89.9272)"><tspan x="0" y="0" class="st2 st3">A                                                     B </tspan><tspan x="483.9" y="0" class="st2 st3 st4">	</tspan><tspan x="529.6" y="0" class="st2 st3 st5">			</tspan><tspan x="794.3" y="0" class="st2 st3">                C                                                  </tspan></text>
<rect x="271.3" y="560.7" class="st1" width="983.4" height="35.4"/>
<text transform="matrix(1 0 0 1 271.2822 581.7373)"><tspan x="0" y="0" class="st2 st3">D                                                     E </tspan><tspan x="482.3" y="0" class="st2 st3 st6">	</tspan><tspan x="529.6" y="0" class="st2 st3 st5">			</tspan><tspan x="794.3" y="0" class="st2 st3">                F                                                  </tspan></text>
</svg>
