<?xml version="1.0" encoding="utf-8"?>
<!-- Generator: Adobe Illustrator 26.5.0, SVG Export Plug-In . SVG Version: 6.00 Build 0)  -->
<svg version="1.1" id="Layer_1" xmlns="http://www.w3.org/2000/svg" xmlns:xlink="http://www.w3.org/1999/xlink" x="0px" y="0px"
	 viewBox="0 0 595.3 841.9" style="enable-background:new 0 0 595.3 841.9;" xml:space="preserve">
<style type="text/css">
	.st0{fill:none;}
	.st1{fill:#B21212;}
	.st2{font-family:'ArialMT';}
	.st3{font-size:12.7963px;}
	.st4{font-family:'MyriadPro-Regular';}
	.st5{fill:#FF6600;}
	.st6{fill:#0066FF;}
	.st7{fill:#009900;}
</style>
<image style="overflow:visible;" width="2362" height="4724" xlink:href="C1882F06.jpg"  transform="matrix(0.1777 0 0 0.1777 87.7425 2.3079)">
</image>
<rect x="191.7" y="133.2" class="st0" width="94.6" height="37"/>
<text transform="matrix(1 0 0 1 199.8964 142.3265)"><tspan x="0" y="0" class="st1 st2 st3">High loss rate</tspan><tspan x="0" y="15.4" class="st1 st2 st3">Low burn rate</tspan><tspan x="78.2" y="15.4" class="st1 st4 st3"> </tspan></text>
<rect x="368.3" y="158" class="st0" width="94.6" height="37"/>
<text transform="matrix(1 0 0 1 376.4389 167.2084)"><tspan x="0" y="0" class="st5 st2 st3">High loss rate</tspan><tspan x="-1.4" y="15.4" class="st5 st2 st3">High burn rate</tspan><tspan x="79.7" y="15.4" class="st5 st4 st3"> </tspan></text>
<rect x="191.7" y="322.2" class="st0" width="94.6" height="37"/>
<text transform="matrix(1 0 0 1 201.3178 331.3881)"><tspan x="0" y="0" class="st6 st2 st3">Low loss rate</tspan><tspan x="-1.4" y="15.4" class="st6 st2 st3">Low burn rate</tspan><tspan x="76.8" y="15.4" class="st6 st4 st3"> </tspan></text>
<rect x="368.3" y="262.8" class="st0" width="94.6" height="37"/>
<text transform="matrix(1 0 0 1 377.8598 271.9486)"><tspan x="0" y="0" class="st7 st2 st3">Low loss rate</tspan><tspan x="-2.8" y="15.4" class="st7 st2 st3">High burn rate</tspan><tspan x="78.2" y="15.4" class="st7 st4 st3"> </tspan></text>
<rect x="162.8" y="573.3" class="st0" width="79.7" height="62.2"/>
<text transform="matrix(1 0 0 1 176.3437 582.4769)"><tspan x="0" y="0" class="st1 st2 st3">High loss</tspan><tspan x="15.3" y="15.4" class="st1 st2 st3">rate</tspan><tspan x="0" y="30.7" class="st1 st2 st3">Low burn</tspan><tspan x="15.3" y="46.1" class="st1 st2 st3">rate</tspan><tspan x="37.3" y="46.1" class="st1 st4 st3"> </tspan></text>
<rect x="155.4" y="688.6" class="st0" width="94.6" height="65.5"/>
<text transform="matrix(1 0 0 1 177.7651 697.7426)"><tspan x="0" y="0" class="st6 st2 st3">Low loss</tspan><tspan x="13.9" y="15.4" class="st6 st2 st3">rate</tspan><tspan x="-1.4" y="30.7" class="st6 st2 st3">Low burn</tspan><tspan x="13.9" y="46.1" class="st6 st2 st3">rate</tspan><tspan x="35.9" y="46.1" class="st6 st4 st3"> </tspan></text>
<rect x="341.9" y="699.4" class="st0" width="94.6" height="37"/>
<text transform="matrix(1 0 0 1 351.5273 708.515)"><tspan x="0" y="0" class="st7 st2 st3">Low loss rate</tspan><tspan x="-2.8" y="15.4" class="st7 st2 st3">High burn rate</tspan><tspan x="78.2" y="15.4" class="st7 st4 st3"> </tspan></text>
<rect x="341.9" y="558.4" class="st0" width="94.6" height="37"/>
<text transform="matrix(1 0 0 1 350.1059 567.5677)"><tspan x="0" y="0" class="st5 st2 st3">High loss rate</tspan><tspan x="-1.4" y="15.4" class="st5 st2 st3">High burn rate</tspan><tspan x="79.7" y="15.4" class="st5 st4 st3"> </tspan></text>
</svg>
